<?xml version="1.0" encoding="utf-8"?>
<!-- Generator: Adobe Illustrator 23.0.1, SVG Export Plug-In . SVG Version: 6.00 Build 0)  -->
<svg version="1.1" id="Layer_1" xmlns="http://www.w3.org/2000/svg" xmlns:xlink="http://www.w3.org/1999/xlink" x="0px" y="0px"
	 viewBox="0 0 512 512" style="enable-background:new 0 0 512 512;" xml:space="preserve">
<style type="text/css">
	.st0{clip-path:url(#SVGID_2_);fill:url(#SVGID_3_);}
	.st1{clip-path:url(#SVGID_5_);fill:url(#SVGID_6_);}
	.st2{clip-path:url(#SVGID_8_);fill:url(#SVGID_9_);}
	.st3{clip-path:url(#SVGID_11_);fill:url(#SVGID_12_);}
	.st4{clip-path:url(#SVGID_14_);fill:url(#SVGID_15_);}
	.st5{clip-path:url(#SVGID_17_);fill:url(#SVGID_18_);}
	.st6{clip-path:url(#SVGID_20_);fill-rule:evenodd;clip-rule:evenodd;}
	.st7{clip-path:url(#SVGID_20_);fill-rule:evenodd;clip-rule:evenodd;fill:#1492B7;}
	.st8{clip-path:url(#SVGID_20_);fill:#1492B7;}
</style>
<g>
	<g>
		<defs>
			<polygon id="SVGID_1_" points="46.7,299.3 46.7,299.4 46.9,299.3 46.8,299.2 			"/>
		</defs>
		<clipPath id="SVGID_2_">
			<use xlink:href="#SVGID_1_"  style="overflow:visible;"/>
		</clipPath>
		
			<linearGradient id="SVGID_3_" gradientUnits="userSpaceOnUse" x1="405.1253" y1="860.7149" x2="406.759" y2="860.7149" gradientTransform="matrix(0 0.3114 -0.3114 0 314.7812 172.7007)">
			<stop  offset="0" style="stop-color:#B64D9C"/>
			<stop  offset="0.2941" style="stop-color:#B64D9C"/>
			<stop  offset="0.3248" style="stop-color:#AA56A0"/>
			<stop  offset="0.3799" style="stop-color:#8B70A9"/>
			<stop  offset="0.4525" style="stop-color:#5998B9"/>
			<stop  offset="0.5074" style="stop-color:#2FBAC6"/>
			<stop  offset="0.674" style="stop-color:#1493B7"/>
			<stop  offset="0.788" style="stop-color:#2F82B4"/>
			<stop  offset="0.9207" style="stop-color:#4972B0"/>
			<stop  offset="1" style="stop-color:#536CAF"/>
		</linearGradient>
		<rect x="46.7" y="299.2" class="st0" width="0.2" height="0.2"/>
	</g>
	<g>
		<defs>
			<polygon id="SVGID_4_" points="67.5,284.7 67.5,284.8 67.6,284.7 67.6,284.6 			"/>
		</defs>
		<clipPath id="SVGID_5_">
			<use xlink:href="#SVGID_4_"  style="overflow:visible;"/>
		</clipPath>
		
			<linearGradient id="SVGID_6_" gradientUnits="userSpaceOnUse" x1="212.6229" y1="690.8847" x2="214.2565" y2="690.8847" gradientTransform="matrix(0 0.6377 -0.6377 0 508.1303 148.7051)">
			<stop  offset="0" style="stop-color:#B64D9C"/>
			<stop  offset="0.2941" style="stop-color:#B64D9C"/>
			<stop  offset="0.3248" style="stop-color:#AA56A0"/>
			<stop  offset="0.3799" style="stop-color:#8B70A9"/>
			<stop  offset="0.4525" style="stop-color:#5998B9"/>
			<stop  offset="0.5074" style="stop-color:#2FBAC6"/>
			<stop  offset="0.674" style="stop-color:#1493B7"/>
			<stop  offset="0.788" style="stop-color:#2F82B4"/>
			<stop  offset="0.9207" style="stop-color:#4972B0"/>
			<stop  offset="1" style="stop-color:#536CAF"/>
		</linearGradient>
		<rect x="67.5" y="284.6" class="st1" width="0.2" height="0.2"/>
	</g>
	<g>
		<defs>
			<polygon id="SVGID_7_" points="98.3,287 98.4,287.1 98.5,287 98.4,286.9 			"/>
		</defs>
		<clipPath id="SVGID_8_">
			<use xlink:href="#SVGID_7_"  style="overflow:visible;"/>
		</clipPath>
		
			<linearGradient id="SVGID_9_" gradientUnits="userSpaceOnUse" x1="46.1767" y1="553.7574" x2="47.8103" y2="553.7574" gradientTransform="matrix(0 637.722 -637.722 0 353241.7188 -29534.6465)">
			<stop  offset="0" style="stop-color:#B64D9C"/>
			<stop  offset="0.2941" style="stop-color:#B64D9C"/>
			<stop  offset="0.3248" style="stop-color:#AA56A0"/>
			<stop  offset="0.3799" style="stop-color:#8B70A9"/>
			<stop  offset="0.4525" style="stop-color:#5998B9"/>
			<stop  offset="0.5074" style="stop-color:#2FBAC6"/>
			<stop  offset="0.674" style="stop-color:#1493B7"/>
			<stop  offset="0.788" style="stop-color:#2F82B4"/>
			<stop  offset="0.9207" style="stop-color:#4972B0"/>
			<stop  offset="1" style="stop-color:#536CAF"/>
		</linearGradient>
		<rect x="98.3" y="286.9" class="st2" width="0.2" height="0.2"/>
	</g>
	<g>
		<defs>
			<path id="SVGID_10_" d="M342.5,332.2l0.1,0.8l0.4-0.4l-0.1-0.7L342.5,332.2z M338,332l0,0.9l0.5-0.3l0-0.8L338,332z M346.6,331.9
				l0.2,0.7l0.4-0.4l-0.1-0.7L346.6,331.9z M333.3,331.1l0,0.9l0.6-0.2l0-0.9L333.3,331.1z M350.3,331l0.2,0.7l0.3-0.4l-0.2-0.6
				L350.3,331z M328.4,329.6l-0.1,1l0.6-0.2l0.1-1L328.4,329.6z M353.6,329.8l0.2,0.6l0.3-0.5l-0.2-0.5L353.6,329.8z M342,328.7
				l0.1,0.9l0.6-0.6l-0.1-0.9L342,328.7z M345.9,328.6l0.2,0.8l0.6-0.6l-0.1-0.8L345.9,328.6z M337.9,328.4l0.1,1l0.7-0.5l0-1
				L337.9,328.4z M323.3,327.4l-0.2,1.1l0.7-0.1l0.2-1L323.3,327.4z M349.4,327.9l0.2,0.7l0.5-0.6l-0.2-0.7L349.4,327.9z
				 M333.5,327.4v1.1l0.8-0.4l0-1.1L333.5,327.4z M352.6,326.8l0.2,0.6l0.4-0.7l-0.2-0.6L352.6,326.8z M328.9,325.9l-0.1,1.2
				l0.9-0.4l0.1-1.1L328.9,325.9z M359,326.1l0.2,0.4l0.2-0.5l-0.2-0.4L359,326.1z M341.8,325.4l0.1,1l0.9-0.7l-0.1-0.9L341.8,325.4
				z M355.3,325.3l0.2,0.6l0.3-0.7l-0.2-0.5L355.3,325.3z M345.5,325.4l0.2,0.9l0.8-0.8l-0.1-0.8L345.5,325.4z M317.9,325.7l0.8,0
				l0.3-1.1l-0.8,0L317.9,325.7z M337.9,325l0.1,1.1l1-0.7l-0.1-1L337.9,325z M348.8,324.9l0.2,0.8l0.6-0.8l-0.2-0.7L348.8,324.9z
				 M324.2,323.7l-0.1,1.3l1-0.3l0.2-1.2L324.2,323.7z M333.8,324l0,1.2l1.1-0.6l0-1.1L333.8,324z M361.1,323.7l0.1,0.1l0.1,0
				l0.1,0.2l0.1-0.5l-0.2-0.3L361.1,323.7z M351.8,323.9l0.2,0.7l0.6-0.8l-0.2-0.6L351.8,323.9z M357.7,323.5l0.2,0.5l0.3-0.7
				l-0.2-0.4L357.7,323.5z M329.5,322.5l0,1.3l1.2-0.5l0-1.2L329.5,322.5z M354.4,322.7l0.1,0.2l0.3,0.2l0.3-0.6l-0.2-0.5
				L354.4,322.7z M341.8,322.4l0.2,1l1.1-0.9l-0.1-0.9L341.8,322.4z M345.3,322.4l0.2,0.9l0.9-0.9l-0.1-0.8L345.3,322.4z M348.5,322
				l0.2,0.7l0.8-1l-0.2-0.7L348.5,322z M338.1,321.9l0.1,1.1l1.2-0.8l-0.1-1L338.1,321.9z M319.4,320.9l-0.2,1.5l1.1-0.2l0.2-1.4
				L319.4,320.9z M312.7,322.1l0.9,0l0.4-1.3l-0.8-0.1L312.7,322.1z M359.6,321.4l0.2,0.4l0.2-0.7l-0.2-0.4L359.6,321.4z
				 M362.7,321.2l0.2,0.3l0.1-0.5l-0.2-0.3L362.7,321.2z M351.3,321.2l0.2,0.6l0.7-1l-0.2-0.6L351.3,321.2z M356.7,321l0.2,0.5
				l0.4-0.9l-0.2-0.5L356.7,321z M334.2,320.8l0.1,1.2l1.3-0.8l-0.1-1.2L334.2,320.8z M325.1,320.3l-0.1,1.5l1.3-0.5l0.1-1.4
				L325.1,320.3z M353.8,320.1l0.2,0.5l0.6-1l-0.2-0.5L353.8,320.1z M330.7,319l-0.6,0.3l0.1,1.3l0.2-0.1l0,0.1l0.3-1.7L330.7,319z
				 M345.4,319.7l0.2,0.8l1.2-1l-0.1-0.3l-0.3-0.3L345.4,319.7z M331.2,318.8l0.3,0.3l-0.2,0.9l0.3-0.2l-0.1-1.3L331.2,318.8z
				 M342.1,319.6l0.2,0.9l1.3-1l-0.1-0.9L342.1,319.6z M361.2,319l0.2,0.3l0.1-0.7l-0.2-0.3L361.2,319z M348.4,319.4l0.2,0.7l1-1.1
				l-0.1-0.7L348.4,319.4z M358.5,319.1l0.2,0.4l0.3-0.9l-0.2-0.4L358.5,319.1z M339.9,318.1L339.9,318.1L339.9,318.1L339.9,318.1z
				 M363.9,318.3l0.2,0.2l0-0.4l-0.2-0.2L363.9,318.3z M356,318.6l0.2,0.4l0.5-1l0.7,0.5l-1-0.7L356,318.6z M339.6,318.3l-1,0.6
				l0.2,1l0.7-0.5l0,0.4l0.2-2.1L339.6,318.3z M352,317.7L352,317.7L352,317.7l-0.8,1l0.2,0.6l0.9-1.1l-0.2-0.6L352,317.7z
				 M314.4,319l1.2-0.1l0.3-1.5l-1.2,0L314.4,319z M320.6,317.6l-0.1,1.6l1.4-0.4l0.1-1.5L320.6,317.6z M334.8,317.9l0.2,1.2
				l1.5-0.9l-0.2-1.1L334.8,317.9z M345.7,317.2l0.2,0.7l0.1-0.1l0-0.9L345.7,317.2z M326,317.2l0.1,1.5l1.5-0.6l0-1.4L326,317.2z
				 M353.6,317.7l0.2,0.5l0.8-1.1l-0.1-0.5L353.6,317.7z M307.7,317.9l0.9,0.1l0.5-1.4l-0.9-0.3L307.7,317.9z M339,316.4l0.3,0.9
				l0.5-0.3l-0.6-0.8L339,316.4z M346.3,316.8l0.5,0.5l0.5-0.4l-0.2-0.7L346.3,316.8z M360,316.9l0.2,0.3l0.2-0.8l-0.2-0.3
				L360,316.9z M342.5,317l0.2,0.8l1.5-1L344,316L342.5,317z M348.7,317l0.2,0.6l1.2-1.1l-0.1-0.6L348.7,317z M362.4,316.4l0.2,0.2
				l0.1-0.6l-0.2-0.2L362.4,316.4z M357.8,316.9l0.2,0.4l0.4-1l-0.2-0.3L357.8,316.9z M331.9,315.9l-0.4,1.4l-0.9-1.6l0.3,0.6
				l-0.1,0l0.2,1.3l1.6-0.8l-0.2-1.3L331.9,315.9z M340.1,315.8l-0.2,1.2l1-0.6l-0.2-0.9L340.1,315.8z M351.7,316.1L351.7,316.1
				l0.1,0.5l0.7-0.8l-0.1-0.5L351.7,316.1z M355.7,316.4l0.2,0.4l0.1-0.1l0.3,1.1c-0.4-1.5-0.4-1.5-0.4-1.5l0.2,0.1l0.4-0.8
				l-0.1-0.4L355.7,316.4z M364.7,315.3l0.2,0.2v-0.4l-0.2-0.1L364.7,315.3z M345.3,315.5l-0.6-0.6L345.3,315.5z M354.2,315
				l-0.4,0.5l0.1,0.4l0.6-0.7l-0.6-0.4L354.2,315z M349.3,315l0.2,0.5l0.9-0.6l-0.4-0.3L349.3,315z M335.4,315.3l0.3,1.1l1.7-0.9
				l-0.3-1.1L335.4,315.3z M300.5,315.6l0.7,0.3l0.6-1.2l-0.7-0.4L300.5,315.6z M354.7,314.3L354.7,314.3L354.7,314.3L354.7,314.3z
				 M316.3,314.3l-0.2,1.8l1.5-0.3l0.2-1.6L316.3,314.3z M346.3,315.1l0.2,0.6l1.5-1l-0.2-0.6L346.3,315.1z M321.8,314.5l0.1,1.6
				l1.6-0.5l0-1.5L321.8,314.5z M343.1,314.8l0.3,0.7l1.3-0.7l-0.1-0.1l0.1-0.7L343.1,314.8z M350.3,314.2l0,0.6l0.4-0.3l-0.1-0.5
				L350.3,314.2z M344.7,314L344.7,314l0-0.1L344.7,314z M359.3,314.7l0.2,0.4l0.3-1l-0.2-0.3L359.3,314.7z M361.2,314.5l0.2,0.2
				l0.1-0.8l-0.2-0.2L361.2,314.5z M326.9,314.3l0.3,1.5l1.7-0.7l-0.2-1.4L326.9,314.3z M357.4,314.7l0.1,0.3l0.4-0.9l0.4,1.1
				l-0.5-1.1l0,0l0.1-0.3l-0.1-0.3L357.4,314.7z M351.9,314.4l0.1,0.4l1.3-1.1l-0.1-0.4l0,0L351.9,314.4z M309.9,315.1l1.3,0
				l0.4-1.6l-1.3-0.1L309.9,315.1z M355.8,314.3l0.1,0.3l0.8-1.2l-0.3-0.1L355.8,314.3z M339.7,314.1l0.2,0.6l0.1,0.2l1.7-0.8
				l-0.3-0.9L339.7,314.1z M363.1,313.6l0.2,0.2l0-0.6l-0.2-0.2L363.1,313.6z M331.6,313.7l0.2,0.6l0.4,0.5l1.6-0.7l-0.3-1.2
				L331.6,313.7z M348.8,312.6L348.8,312.6L348.8,312.6l-1.6,0.8l0.2,0.5l1.4-0.6L348.8,312.6l0.2,0.2L348.8,312.6L348.8,312.6z
				 M354.2,313.6l0.1,0.3l1.1-1.1l-0.1-0.3L354.2,313.6z M336.1,313l0.4,1l1.8-0.8l-0.4-1L336.1,313z M365.1,312.2l0.1,0.1l0-0.3
				l-0.1-0.1L365.1,312.2z M357.5,312.7l0.1,0.2l0.6-1.1l-0.2,0L357.5,312.7z M344.4,312.9L344,313l0.3,0.6l0.5-0.2l0,0.5l0.1-0.6
				l0.1,0.1l1.2-0.5l-0.2-0.6l-0.8,0.3l-0.2,0.7L344.4,312.9l-1.1-1.1L344.4,312.9z M358.9,312.8l0.1,0.2l0.2-0.7l0.4,0.7l-0.5-0.8
				l0.1,0l0.1-0.4l-0.1-0.2L358.9,312.8z M340.6,312.3l0.4,0.7l1.9-0.6l-0.3-0.7L340.6,312.3z M360.4,312.6l-0.4-0.1l0.6,0.1
				l0.1-0.8l-0.1-0.2L360.4,312.6z M356.2,312.4l0.1,0.2l0.8-0.9l-0.1-0.2L356.2,312.4z M348.8,311.9L348.8,311.9l0.1,0.4l1.4-0.4
				l-0.1-0.4L348.8,311.9z M303.1,313.1l1,0.3l0.6-1.5l-1-0.4L303.1,313.1z M358.3,311.5l-0.2,0l-0.6-0.1L358.3,311.5z M357.3,311.4
				l0.3,0L357.3,311.4L357.3,311.4z M349.9,311.4l0.2,0l-0.3-0.1L349.9,311.4z M357.1,311.3l-0.4-0.1l0.5,0.1l0-0.1L357.1,311.3z
				 M352.9,311.3L352.9,311.3l0.2,0l-1.4-0.1L352.9,311.3z M361.9,311.9l0.2,0.2l0-0.8l-0.2-0.2L361.9,311.9z M322.9,311.7l0.3,1.6
				l1.8-0.6l-0.2-1.6L322.9,311.7z M351.5,311.1l-1.1,0.1l0.4,0.1l0.9-0.1l0-0.1L351.5,311.1L351.5,311.1L351.5,311.1z M317.7,311.4
				l0.1,1.8l1.7-0.4l0-1.7L317.7,311.4z M353.2,311.2l0.2,0l0,0l1.3-0.2l0,0l0,0h0l0,0L353.2,311.2z M327.7,311.6l0.5,1.4l1.9-0.7
				l-0.4-1.4L327.7,311.6z M347.5,310.8L347.5,310.8l-0.2,0.2l-0.4-0.2l-0.5,0l0.2,0.3l0.5,0l-0.1,0.3l-0.1-0.1l-1.9,0.4l0.3,0.5
				l1.9-0.4l-0.1-0.1l-0.1-0.1l0.1-0.6l0.3,0.1l1.1,0l-0.2-0.3L347.5,310.8z M348,310.7l1.6,0.2l0.3,0l-0.1,0l-2-0.3L348,310.7z
				 M332.6,311.3l0.2,0.3l-0.2,0.4l0.3,0.6l1.9-0.7l-0.5-1.2L332.6,311.3z M358.1,310.7l-0.2,0.3l0,0.2l0.3-0.4L358.1,310.7z
				 M359,310.6l-0.1,0.4l0.1,0.2l0.2-0.5L359,310.6z M336.9,311.1l0.5,0.9l0.6-0.2l0.5-1.1l0.7,0.8l0.1,0l-0.3-0.6l-0.1,0.1
				l-0.3-0.3L336.9,311.1z M356.8,310.6l-0.3,0.2l-0.1,0.1l0.6-0.3L356.8,310.6z M357.1,310.8l0,0.1l0.5-0.4l-0.1-0.1L357.1,310.8z
				 M312.1,310.5l-0.2,1.9l1.6-0.2l0.2-1.8L312.1,310.5z M357.9,310.4l0.4,0l0,0L357.9,310.4z M362.9,310.3l0.6,0l0,0.4l0.2,0.1
				l0-0.5l0,0L362.9,310.3z M338.4,310.3L338.4,310.3l-0.2-0.2L338.4,310.3z M358.2,310L358.2,310L358.2,310z M343.9,310.4l1.1,0
				l-0.4-0.4l-1.4,0L343.9,310.4z M357.5,310.5L357.5,310.5l0.3,0l-0.2,0l0.5-0.4l-0.1,0L357.5,310.5z M356.9,310.5l-1.3,0.3h0
				l1.5-0.4l0.7-0.4l0.1-0.1L356.9,310.5z M358.7,309.8l-0.4,0.6l0.1,0v0l0.6-0.1l-0.6,0l0.4-0.5L358.7,309.8L358.7,309.8z
				 M343.1,310.6l-1.6,0.3l0.4,0.6l1.5-0.3l0.1-0.3l0.3,0.2l0.1,0l-0.1-0.1l0,0L343.1,310.6l-1.1-0.8L343.1,310.6z M358.1,309.9
				l0.1,0l0-0.1L358.1,309.9z M359.9,310.7l-0.2,0l0.3,0c0,0,0,0,1.2,0.1l-1.2-0.1l0.2-0.9l-0.1-0.1L359.9,310.7z M359.1,310.4
				l0.1,0.1l0.2-0.6l-0.1-0.2L359.1,310.4z M361.1,309.7l0,0.5l0.1,0.1l0-0.6L361.1,309.7z M358.9,309.3L358.9,309.3l-0.1,0.1
				L358.9,309.3L358.9,309.3z M338.9,309.4l0.7,0.7l-0.1,0.1l0.8-0.1l-0.6-0.8L338.9,309.4z M361.2,309.4l-1.2,0.2l1.5-0.2l-0.1,0
				l0,0l-0.1-0.1L361.2,309.4z M359.5,308.9l-0.2,0.3l0,0.1L359.5,308.9L359.5,308.9z M365.1,308.9L365.1,308.9L365.1,308.9
				L365.1,308.9L365.1,308.9z M359.4,308.9L359.4,308.9L359.4,308.9L359.4,308.9z M333.1,309.4l0.7,1.1l1.9-0.5l-0.6-1.1
				L333.1,309.4z M305.6,310.7l1.1,0.1l0.4-0.8l0,0.1l0.3-1l-1.4-0.3L305.6,310.7z M342,308.9l-0.3-0.2l-0.2,0L342,308.9z
				 M328.5,309.3l0.7,1.3l1.9-0.6l-0.6-1.3L328.5,309.3z M341.2,308.6l0.2,0L341.2,308.6L341.2,308.6z M362.3,309.2l0.1,0.1l0-0.7
				l-0.1-0.1L362.3,309.2z M323.9,309.1l0.6,1.6l1.9-0.7l-0.5-1.5L323.9,309.1z M295.9,309.9l0.8,0.5l0.7-1.3l-0.7-0.6L295.9,309.9z
				 M359,309.2l-0.7,0.5l1.1-0.7L359,309.2l0.8-0.8l0-0.1l0,0L359,309.2z M340.4,308.6l0.3,0.1l-1.5-0.1l-0.3,0.1l0.5,0.5l2,0.1
				l-0.6-0.6l0.7,0.2l-0.6-0.3l0.3,0l-1.4-0.4L340.4,308.6z M319,308.6l0.4,1.8l1.9-0.6l-0.3-1.7L319,308.6z M359.8,308.3
				L359.8,308.3l-0.3,0.6l0.1-0.1c0,0,0,0,0,0l0.4-0.8l0-0.1L359.8,308.3z M360.8,307.7l-0.1,0.7l-0.6,0.3l0.2-0.6l0,0l0,0l-0.2,0.8
				l0.1,0.1l0.1-0.3l0,0l1.3-0.6l-0.6,0.3l0.1-0.8L360.8,307.7z M333.9,307.8l0.8,1l1.9-0.2l-0.8-1L333.9,307.8z M313.8,307.7l0.1,2
				l1.8-0.3l-0.1-1.9L313.8,307.7z M360.9,307.4L360.9,307.4l-0.1-0.1L360.9,307.4l-0.6,0.5l0-0.2l0-0.1l-0.1,0.3l-0.2,0.1l1.1-0.9
				L360.9,307.4z M363.6,307.6l0.1,0.1l-0.1-0.5l-0.1-0.1L363.6,307.6z M331.7,307.4l0.3-0.3L331.7,307.4z M329.3,307.2l0.9,1.3
				l1-0.2l-0.1-0.2l0.7-0.7l-0.5-0.7L329.3,307.2z M337.7,307.1l-0.4-0.3l-0.2,0L337.7,307.1z M361.5,307.6l0.1,0.1l0-0.9l-0.1-0.1
				L361.5,307.6z M366.5,306.5L366.5,306.5L366.5,306.5L366.5,306.5L366.5,306.5z M360.3,307.3l0.4-1l0,0L360.3,307.3z M360.7,306.3
				l-0.1,0.4l0,0l0.1-0.5L360.7,306.3z M336.3,306.8l0.1,0l-1.8-0.1l0.9,0.8l1.6,0.2l-0.4-0.4l0.7-0.1l-0.5,0.1l-0.4-0.3l0.8,0.3
				l-1.2-0.7l-0.9-0.3L336.3,306.8z M324.8,306.7l0.1,0.3l0,0l0.7,1.2l1.9-0.6l-0.8-1.5L324.8,306.7z M298.9,307.9l1.1,0.4l0.7-1.6
				l-1.1-0.6L298.9,307.9z M362.3,305.7l0.1,0.5l0.1,0.1L362.3,305.7L362.3,305.7L362.3,305.7z M320.1,306.1l0.7,1.8l1.9-0.6
				l-0.6-1.7L320.1,306.1z M360.8,306.3l0-0.1l0.1-0.6l0,0L360.8,306.3z M331.9,305.4L331.9,305.4L331.9,305.4z M334,305.3
				L334,305.3L334,305.3L334,305.3z M361.1,305.1l0,0.9l0.1,0l0-1.1L361.1,305.1z M315.2,305.2l0.4,2l1.9-0.5l-0.4-1.9L315.2,305.2z
				 M332.8,304.8l0.7,0.3l0.4,0.2l-1.3-0.6L332.8,304.8z M331.6,305.3l-1.7,0.2l1.1,1.2l0.9-0.1l-0.7-1l0.7-0.2l0,0l0,0l0,0l0,0h0
				l0.3-0.1l-0.8-0.9l-0.9-0.1L331.6,305.3z M333.6,305l-1.1-0.8l-0.1,0L333.6,305z M363.2,304.4l0.1,0l-0.1-0.4l-0.1,0L363.2,304.4
				z M361.6,304.8L361.6,304.8L361.6,304.8l0-0.9l-0.1,0L361.6,304.8z M301.8,305.8l1.5,0.3l0.6-1.9l-1.4-0.4L301.8,305.8z
				 M367.7,303.6L367.7,303.6L367.7,303.6L367.7,303.6L367.7,303.6z M331.1,303.4l0.5,0.4l-0.8-0.3l0.9,0.7l0.5,0.1l-0.7-0.5h0
				L331.1,303.4L331.1,303.4z M362.2,303.3L362.2,303.3L362.2,303.3L362.2,303.3z M311.6,303.6l-1.5,0.1l0.1,1.5l-0.7,1.1l-1.3-0.1
				l-0.2,2.1l1.1,0l-0.3-1l1.5-2.2l0.3,0.8l1.5-0.2v-0.1l-0.1,0.1l-0.5-2.4C311.6,303.6,311.6,303.6,311.6,303.6 M361.1,304.3
				l0.1-1.1L361.1,304.3z M361.2,303.3L361.2,303.3L361.2,303.3l0-0.1L361.2,303.3z M365.7,302.9L365.7,302.9L365.7,302.9
				L365.7,302.9L365.7,302.9z M362.1,302.9l-0.1-0.3l-0.1,0l0.1,0.4l-0.2,0.5l0.5-1.2L362.1,302.9z M361.1,302.3l0.1,0.9l0-0.1l0,0
				L361.1,302.3L361.1,302.3z M291.9,303.7l0.9,0.6l0.6-0.9l0,0l-0.2-1l-0.3-0.3L291.9,303.7z M316.5,302.7l0.8,2l1.9-0.6l-0.7-2
				L316.5,302.7z M314.5,302.6l-0.1-0.8C314.4,302,314.5,302.3,314.5,302.6 M304.5,303.8l1.8,0.1l0.3-2.1l-1.7-0.2L304.5,303.8z
				 M328.5,302.6l-1.6-0.6l0.6,0.6l-0.4,0.1l0.5,0.9l-1,0l0.6,0.7l-1,0.3l0.2,0.5l-0.5,0.2l0.7,0.9l1.8-0.5l-1-1.4l1.6-0.2l-1.1-1.3
				l1.4,0.2l-1.2-1.2l1,0.4l-1.6-1L328.5,302.6z M314.4,301.7c0-0.2-0.1-0.4-0.1-0.6L314.4,301.7z M361.2,301.2L361.2,301.2l0.2,0.8
				l0,0L361.2,301.2L361.2,301.2z M329.1,302.2l0.3,0.1l-1.5-1.3L329.1,302.2z M311.8,301.3l0.3,1.3l-0.5,0.5l1.8-1.7l0.5,1.8
				l0.4-0.1l-0.5-2.1L311.8,301.3z M327.8,301.1l-0.2-0.1l-0.1-0.1L327.8,301.1z M326.7,300.7l0.3,0.1l-0.3-0.3l-0.4-0.2
				L326.7,300.7z M295.3,302.2l1.2,0.6l0.9-1.7l-1.1-0.7L295.3,302.2z M306.9,299.3l0.1,2.4l1.9-0.2l-0.1-2.2L306.9,299.3z
				 M299.1,298.9l-0.6,1.7l1.5,0.4l0.7-2l-1.3-0.5L299.1,298.9z M313.1,299l0.9,2.3l0.3-0.1l-0.2-1.3l1.3-0.6l-0.3-0.8L313.1,299z
				 M318.7,297.9l0.4,1.6l0.1,0.2l-0.1,0l0.1,0.2l-0.8,0l-1,0.3l1.2,2.1l1.8-0.6l-1.1-2l0.4,0.5l1.5-0.6l-0.6-0.8l-1.7-0.5
				L318.7,297.9L318.7,297.9z M324.1,298.6l-1-0.8l0.1,0.1l-0.6,0l0.3,0.6l-1-0.6l0.7,0.4l0.8,0.9l-1.4,0.3l1.2,1.4l-1.6,0.5
				l1.1,1.6l-1.8,0.6l1,1.8l1.9-0.6l-0.8-1.5l1.7-0.5l-1-1.4l1.4-0.3l-1.1-1.3l1.2,0l-1.3-1.4l1,0.5l-1.5-1.3L324.1,298.6z
				 M321.2,297.6l0.7,0.4L321.2,297.6L321.2,297.6z M321,298l0.4-0.2l-0.2-0.2l0,0h0l-0.5-0.3L321,298z M323,297.3l-0.3-0.3l-0.1,0
				L323,297.3z M301.7,297.5l-0.2,1.5l1.8,0.2l0.3-2.2l-0.7-0.2L301.7,297.5z M308.7,297.2l0.5,2.4l2-0.4l-0.5-2.3L308.7,297.2z
				 M284.8,298l0.6,0.8l1-1l-0.5-0.9L284.8,298z M320.2,296.3L320.2,296.3L320.2,296.3L320.2,296.3z M314.2,296.7l1.3,2.3l1.1-0.5
				l-0.2-1.1l2.2,0l-1.9,0l-0.8-1.5L314.2,296.7z M288.7,297.2l0.9,0.8l1.1-1.4l-0.8-1L288.7,297.2z M306.5,295.1l0.1,0.4l1.9-0.4
				l-0.1-0.3L306.5,295.1z M304.5,296.1l-0.3,0.2l0,1.1l1.9-0.1l0-2.1l-0.7,0.1l0-0.4l-1.1-0.1L304.5,296.1z M292.4,296.4l1.3,0.7
				l1-1.7l-1.2-0.9L292.4,296.4z M310.2,295l1,2.5l1.8-0.6l-0.9-2.4L310.2,295z M319.2,294.4l-0.4-0.4l-0.4,0.2l1.2,1.3l-1.1,0.6
				l0,0l1.9,0.7l-0.2-0.5l0,0.1l-0.5-0.6l0.5,0.5l-0.2-0.7l1.2,0.7l0.6,0.3l-0.6-0.3l0,0l-2.1-2.3L319.2,294.4z M314.9,294.5
				l1.6,2.5l1.2-0.8l-1.7-2.5L314.9,294.5z M313.8,293.4L313.8,293.4l-0.1-0.2L313.8,293.4z M295.9,295.4l1.6,0.6l0.8-2l-1.5-0.8
				L295.9,295.4z M312,292.4l0,1.7l0.7,1.3l1.4-0.9l-0.8-1.5l-1.2-0.7L312,292.4z M315.2,292.3l1.9,2.6l0.7-0.8l-0.5-0.7l0,0.5
				L315.2,292.3L315.2,292.3z M299.1,294.2l1.8,0.3l0.4-2.3l-1.8-0.5L299.1,294.2z M312.1,290.6l0.1,0.1l0.1-0.3L312.1,290.6z
				 M307.7,290.9l0.4,1.2l0.2,0l0,0.7l0.3,0.8l0.4-0.2l-0.2-0.1l0.3-2.6l0.5,0.2l-0.2-0.7L307.7,290.9z M302,292.8l1.9,0l0-2.5
				l-1.9-0.2L302,292.8z M282.3,290.8l0.6,1l1.2-1l-0.5-1.1L282.3,290.8z M312.3,290.3l1.8,1l-1.1-1.9L312.3,290.3z M286.5,290.8
				l0.9,1l1.3-1.3l-0.8-1.1L286.5,290.8z M290.4,290.5l1.3,0.9l1.2-1.7l-1.2-1.1L290.4,290.5z M304.1,288.5l0.4,2.8l1.9-0.4
				l-0.4-2.6L304.1,288.5z M312.3,288.3L312.3,288.3l2,3.1l0.3-1.2l-0.7-1l-1.2-1.3L312.3,288.3z M294,290l1.6,0.7l1-2l-1.5-0.9
				L294,290z M309,288.8l1,2.2l0.7,0.2l0.8-0.7l-1.3-2.8L309,288.8z M308.3,287.8l0.1-0.1l-0.2-0.1L308.3,287.8z M297.3,289.3
				l1.8,0.5l0.6-2.3l-1-0.4l-0.8-0.1L297.3,289.3z M311.3,289.7l0.4-1.1l-2-1.9L311.3,289.7z M303,287.1l0.7-0.1l-0.7-0.3L303,287.1
				z M305.8,286.7l0.8,2.9l1.6-0.8l-0.4-1.5l-1.2-0.9L305.8,286.7z M300.5,286.2l-0.2,2.1l1.9,0.1l0.2-2.1l-1.4-0.7l-0.4-0.1
				L300.5,286.2z M310.2,285.3l0.4,0.4l-0.3-0.6L310.2,285.3z M303.8,284.1l0.8,0.4l0-0.5L303.8,284.1z M307.3,284.5l1.2,0.9
				l0.3-0.1l-0.7-1.8L307.3,284.5z M285.3,284.5l0.9,1.2l1.4-1.2l-0.8-1.3L285.3,284.5z M289.2,284.8l1.2,1.1l1.4-1.6l-1.1-1.2
				L289.2,284.8z M281,283.9l0.6,1.1l1.4-0.8l-0.5-1.2L281,283.9z M292.9,284.8l0.2,0.1l2-0.2l0.5-0.9l-1.4-1.1L292.9,284.8z
				 M276.4,283l0.4,1l1.2-0.5l-0.3-1.1L276.4,283z M296.3,284.5l0.7,0.2l0.4-1l1,0.2l0.4-1.1l-1.7-0.8L296.3,284.5z M271.5,281.8
				l0.1,0.8l1-0.4l0-0.9L271.5,281.8z"/>
		</defs>
		<clipPath id="SVGID_11_">
			<use xlink:href="#SVGID_10_"  style="overflow:visible;"/>
		</clipPath>
		
			<linearGradient id="SVGID_12_" gradientUnits="userSpaceOnUse" x1="42.9912" y1="556.1225" x2="44.6248" y2="556.1225" gradientTransform="matrix(16.8369 -24.3156 24.3155 16.8369 -13936.8662 -7996.019)">
			<stop  offset="0" style="stop-color:#B64D9C"/>
			<stop  offset="0.3725" style="stop-color:#B64D9C"/>
			<stop  offset="0.8017" style="stop-color:#7362A9"/>
			<stop  offset="1" style="stop-color:#536CAF"/>
		</linearGradient>
		<polygon class="st3" points="336.5,378.1 391.9,298.1 302.7,236.4 247.3,316.3 		"/>
	</g>
	<g>
		<defs>
			<path id="SVGID_13_" d="M336.3,337.6l0.1,1l0.5-0.4l-0.1-0.9L336.3,337.6z M330.9,337.3l0.1,1l0.6-0.4l0-1L330.9,337.3z
				 M341.3,337.2l0.2,0.9l0.5-0.5l-0.2-0.8L341.3,337.2z M325.2,336.3l0,1.1l0.7-0.3l0-1.1L325.2,336.3z M345.8,336.2l0.2,0.8
				l0.4-0.5l-0.2-0.7L345.8,336.2z M319.2,334.5l-0.1,1.2l0.8-0.2l0.1-1.2L319.2,334.5z M349.8,334.7l0.3,0.7l0.3-0.6l-0.2-0.7
				L349.8,334.7z M335.8,333.4l0.1,1.1l0.8-0.7l-0.1-1.1L335.8,333.4z M340.5,333.2l0.2,1l0.7-0.7l-0.2-1L340.5,333.2z M330.8,333
				l0.1,1.2l0.9-0.6l0-1.2L330.8,333z M313.1,331.8l-0.2,1.4l0.8-0.1l0.2-1.3L313.1,331.8z M344.7,332.4l0.2,0.9l0.6-0.8l-0.2-0.8
				L344.7,332.4z M325.4,331.8v1.4l1-0.5l0-1.3L325.4,331.8z M348.5,331.1l0.3,0.8l0.5-0.8l-0.2-0.7L348.5,331.1z M319.9,330
				l-0.1,1.5l1.1-0.4l0.1-1.4L319.9,330z M356.3,330.2l0.3,0.5l0.2-0.6l-0.3-0.5L356.3,330.2z M335.5,329.4l0.2,1.2l1-0.9l-0.1-1.1
				L335.5,329.4z M351.9,329.3l0.3,0.7l0.4-0.8l-0.3-0.6L351.9,329.3z M339.9,329.4l0.2,1l0.9-0.9l-0.2-1L339.9,329.4z M306.5,329.7
				l0.9-0.1l0.3-1.4l-0.9-0.1L306.5,329.7z M330.8,328.9l0.1,1.3l1.2-0.8l-0.1-1.2L330.8,328.9z M344,328.7l0.2,0.9l0.8-1l-0.2-0.9
				L344,328.7z M314.1,327.3L314,329l1.2-0.3l0.2-1.5L314.1,327.3z M325.8,327.7l0.1,1.5l1.3-0.7l0-1.4L325.8,327.7z M358.8,327.4
				l0.1,0.2l0.1,0l0.1,0.2l0.1-0.6l-0.3-0.4L358.8,327.4z M347.6,327.6l0.3,0.8l0.7-1l-0.2-0.8L347.6,327.6z M354.7,327.1l0.3,0.6
				l0.3-0.8l-0.3-0.5L354.7,327.1z M320.6,325.8l0,1.6l1.4-0.7l0.1-1.5L320.6,325.8z M350.8,326l0.1,0.2l0.4,0.2l0.4-0.7l-0.2-0.7
				L350.8,326z M335.6,325.7l0.2,1.2l1.3-1.1l-0.1-1.1L335.6,325.7z M339.7,325.8l0.2,1l1.2-1.1l-0.2-1L339.7,325.8z M343.6,325.3
				l0.2,0.9l1-1.2l-0.2-0.9L343.6,325.3z M331.1,325.1l0.2,1.3l1.4-1l-0.1-1.3L331.1,325.1z M308.4,323.9l-0.3,1.8l1.3-0.2l0.3-1.7
				L308.4,323.9z M300.3,325.4l1,0.1l0.4-1.5l-1-0.2L300.3,325.4z M357.1,324.5l0.3,0.5l0.2-0.8l-0.3-0.4L357.1,324.5z M360.8,324.2
				l0.3,0.3l0.1-0.6l-0.2-0.3L360.8,324.2z M347,324.3l0.2,0.8l0.9-1.2l-0.2-0.7L347,324.3z M353.5,324.1l0.3,0.6l0.4-1.1l-0.2-0.5
				L353.5,324.1z M326.3,323.8l0.1,1.5l1.6-0.9l-0.1-1.4L326.3,323.8z M315.2,323.2l-0.1,1.8l1.5-0.6l0.1-1.7L315.2,323.2z
				 M332.6,322.3l-0.1,0.4L332.6,322.3z M350.1,323l0.2,0.6l0.7-1.2l-0.2-0.6L350.1,323z M322.1,321.6l-0.7,0.3l0.1,1.6l0.2-0.1
				l0,0.1l0.4-2.1L322.1,321.6z M339.8,322.5l0.2,1l1.4-1.2l-0.1-0.3l-0.4-0.4L339.8,322.5z M322.7,321.4l0.4,0.4l-0.2,1.1l0.4-0.2
				l-0.1-1.5L322.7,321.4z M335.8,322.3l0.2,1.1l1.6-1.2l-0.2-1.1L335.8,322.3z M359,321.7l0.3,0.4l0.1-0.8l-0.3-0.3L359,321.7z
				 M343.5,322.1l0.2,0.8l1.2-1.3l-0.2-0.8L343.5,322.1z M355.8,321.7l0.3,0.5l0.3-1l-0.2-0.4L355.8,321.7z M333.2,320.5
				L333.2,320.5L333.2,320.5L333.2,320.5z M362.3,320.8l0.2,0.3l0-0.5l-0.2-0.2L362.3,320.8z M352.7,321.2l0.2,0.5l0.6-1.2l0.9,0.6
				l-1.3-0.9L352.7,321.2z M332.8,320.8l-1.3,0.8l0.2,1.2l0.9-0.6l0.2-2.1L332.8,320.8z M347.8,320.1L347.8,320.1L347.8,320.1
				l-1,1.2l0.2,0.7l1.1-1.4L348,320L347.8,320.1z M302.4,321.7l1.4-0.1l0.4-1.8l-1.4,0L302.4,321.7z M309.9,319.9l-0.1,1.9l1.7-0.5
				l0.2-1.8L309.9,319.9z M327,320.3l0.2,1.4l1.8-1l-0.2-1.4L327,320.3z M340.3,319.5l0.2,0.9l0.1-0.1l0-1L340.3,319.5z
				 M316.3,319.4l0.1,1.8l1.9-0.7l0-1.7L316.3,319.4z M349.8,320.1l0.2,0.6l0.9-1.4l-0.2-0.6L349.8,320.1z M294.3,320.3l1.2,0.2
				l0.6-1.7l-1.1-0.3L294.3,320.3z M332.2,318.5l0.3,1.1l0.6-0.3l-0.7-0.9L332.2,318.5z M340.9,319l0.6,0.6l0.6-0.5l-0.2-0.9
				L340.9,319z M357.6,319.1l0.3,0.4l0.2-1l-0.2-0.4L357.6,319.1z M336.3,319.2l0.3,1l1.8-1.2l-0.2-1L336.3,319.2z M343.8,319.2
				l0.2,0.7l1.5-1.3l-0.2-0.7L343.8,319.2z M360.4,318.5l0.2,0.3l0.1-0.7l-0.2-0.3L360.4,318.5z M354.9,319l0.2,0.4l0.5-1.3
				l-0.2-0.4L354.9,319z M323.5,317.9l-0.5,1.7l-1.1-1.9l0.4,0.7l-0.1,0.1l0.3,1.6l2-0.9l-0.2-1.5L323.5,317.9z M333.4,317.8
				l-0.3,1.4l1.3-0.7l-0.3-1.1L333.4,317.8z M347.5,318.1L347.5,318.1l0.2,0.6l0.9-1l-0.2-0.6L347.5,318.1z M352.3,318.4l0.2,0.5
				l0.1-0.1l0.3,1.3c-0.5-1.8-0.5-1.8-0.5-1.8l0.3,0.2l0.5-1l-0.2-0.5L352.3,318.4z M363.2,317.2l0.2,0.2v-0.5l-0.2-0.2L363.2,317.2
				z M339.8,317.4l-0.7-0.8L339.8,317.4z M350.4,316.8l-0.5,0.6l0.2,0.5l0.7-0.9L350.4,316.8l-0.4-0.2L350.4,316.8z M344.5,316.7
				l0.2,0.6l1.1-0.8l-0.5-0.4L344.5,316.7z M327.7,317.1l0.4,1.3l2.1-1l-0.3-1.3L327.7,317.1z M285.5,317.5l0.9,0.4l0.7-1.4
				l-0.8-0.5L285.5,317.5z M351.1,316L351.1,316L351.1,316L351.1,316z M304.6,315.9l-0.2,2.1l1.8-0.3l0.2-2L304.6,315.9z M341,316.9
				l0.2,0.7l1.9-1.2l-0.2-0.7L341,316.9z M311.3,316.2l0.1,2l2-0.6l0-1.9L311.3,316.2z M345.8,315.8l0.1,0.7l0.5-0.4l-0.1-0.6
				L345.8,315.8z M356.7,316.5l0.2,0.4l0.3-1.2l-0.2-0.3L356.7,316.5z M358.9,316.2l0.2,0.3l0.1-1l-0.2-0.3L358.9,316.2z
				 M317.4,315.9l0.3,1.8l2.1-0.9l-0.2-1.7L317.4,315.9z M354.4,316.5l0.2,0.4l0.5-1l0.5,1.3l-0.6-1.4l0,0l0.1-0.3l-0.2-0.4
				L354.4,316.5z M347.7,316.1l0.1,0.5l1.5-1.3l-0.1-0.4l-0.1,0L347.7,316.1z M296.8,316.9l1.6,0l0.5-2l-1.5-0.2L296.8,316.9z
				 M352.4,315.9l0.1,0.4l0.9-1.4l-0.3-0.1L352.4,315.9z M333,315.7l0.3,0.8l0.2,0.2l2-1l-0.3-1L333,315.7z M361.3,315.1l0.2,0.2
				v-0.7l-0.2-0.2L361.3,315.1z M323.1,315.2l0.2,0.8l0.4,0.6l2-0.9l-0.4-1.5L323.1,315.2z M344,313.9L344,313.9L344,313.9l-2,0.9
				l0.2,0.6l1.7-0.8L344,313.9l0.2,0.3l-0.1-0.3L344,313.9z M350.5,315.1l0.1,0.4l1.4-1.4l-0.1-0.4L350.5,315.1z M328.6,314.3
				l0.5,1.2l2.2-0.9l-0.4-1.2L328.6,314.3z M363.7,313.4l0.2,0.1l0-0.4l-0.2-0.1L363.7,313.4z M354.5,314l0.1,0.3l0.7-1.3l-0.2,0
				L354.5,314z M338.7,314.2l-0.5,0.2l0.3,0.7l0.6-0.2l-0.1,0.7l-1.9,1l0.3,0.9l1.6-0.9l-0.1-0.1l0.2-1.7l0.1,0.1l1.5-0.6l-0.3-0.7
				l-0.9,0.4l-0.2,0.8L338.7,314.2l-1.4-1.3L338.7,314.2z M356.1,314.2l0.2,0.3l0.3-0.9l0.5,0.8l-0.6-0.9l0.1,0l0.2-0.5l-0.1-0.3
				L356.1,314.2z M334,313.5l0.5,0.9l2.3-0.8l-0.4-0.9L334,313.5z M358,313.8l-0.5-0.1L358,313.8L358,313.8l0.2,0.1l0.2-1l-0.2-0.2
				L358,313.8z M353,313.6l0.1,0.3l0.9-1.1l-0.1-0.2L353,313.6z M344,313L344,313l0.1,0.4l1.7-0.5l-0.1-0.4L344,313z M288.7,314.5
				l1.3,0.3l0.7-1.8l-1.2-0.5L288.7,314.5z M355.5,312.6l-0.2,0l-1-0.2L355.5,312.6z M354.3,312.4L354.3,312.4L354.3,312.4z
				 M345.3,312.5l0.3,0l-0.4-0.1L345.3,312.5z M354,312.3l-0.4-0.1l0.6,0.1l0-0.2L354,312.3z M348.9,312.3L348.9,312.3l0.2,0
				l-1.7-0.1L348.9,312.3z M359.9,313.1l0.2,0.2l0-0.9l-0.2-0.2L359.9,313.1z M312.6,312.8l0.4,2l2.2-0.8l-0.3-1.9L312.6,312.8z
				 M347.2,312.1l-1.3,0.1l0.5,0.2l1.1-0.1l0-0.1L347.2,312.1L347.2,312.1L347.2,312.1z M306.3,312.4l0.1,2.2l2.1-0.5l-0.1-2.1
				L306.3,312.4z M349.2,312.2l0.2,0l0,0l1.5-0.3l0.1-0.1l0,0h0l0,0L349.2,312.2z M318.5,312.7l0.6,1.7l2.3-0.9l-0.5-1.7
				L318.5,312.7z M342.4,311.7L342.4,311.7l-0.2,0.2l-0.5-0.2l-0.7,0l0.3,0.3l0.6,0l-0.1,0.3l-0.1-0.2l-2.3,0.5l0.3,0.6l2.3-0.5
				l-0.1-0.1l-0.2-0.1l0.1-0.7l0.3,0.2l1.4,0l-0.2-0.3L342.4,311.7z M343,311.6l2,0.3l0.3,0.1l-0.1,0l-2.4-0.4L343,311.6z
				 M324.4,312.3l0.2,0.3l-0.2,0.5l0.3,0.7l2.3-0.8l-0.6-1.4L324.4,312.3z M355.2,311.5l-0.2,0.3l0,0.2l0.4-0.5L355.2,311.5z
				 M356.3,311.5l-0.2,0.4l0.1,0.2l0.3-0.6L356.3,311.5z M329.6,312l0.6,1.1l0.8-0.2l0.6-1.4l0.8,1l0.2,0l-0.4-0.7l-0.1,0.2
				l-0.4-0.4L329.6,312z M353.6,311.4l-0.4,0.2l-0.1,0.1l0.7-0.4L353.6,311.4z M352.2,311.7L352.2,311.7l1.5-0.4L352.2,311.7z
				 M353.6,311.4l0.1,0L353.6,311.4z M354,311.7l0,0.2l0.6-0.5l-0.1-0.1L354,311.7z M299.6,311.3l-0.2,2.3l1.9-0.2l0.2-2.2
				L299.6,311.3z M354.9,311.3l0.5,0l0,0L354.9,311.3z M355.6,311.2l0.8-0.1L355.6,311.2z M361,311.1l0.7,0l0,0.5l0.2,0.2l0-0.6l0,0
				L361,311.1z M331.4,311.1L331.4,311.1l-0.2-0.2L331.4,311.1z M355.3,310.7L355.3,310.7L355.3,310.7L355.3,310.7z M338.1,311.2
				l1.4,0l-0.5-0.5l-1.6,0L338.1,311.2z M354.5,311.3L354.5,311.3l0.4,0l-0.2,0l0.6-0.5l-0.1,0L354.5,311.3z M353.8,311.3l0.2,0
				l0.9-0.5l0.1-0.1L353.8,311.3z M355.9,310.5l-0.5,0.7l0.2,0l0.4-0.6l0-0.1L355.9,310.5z M337.1,311.4l-1.9,0.3l0.5,0.7l1.8-0.3
				l0.1-0.3l0.3,0.3l0.1,0L338,312l0,0l-2.2-1.6L337.1,311.4z M355.3,310.6l0.2-0.1l0-0.1L355.3,310.6z M357.4,311.6l-0.2,0l0.4,0
				c0,0,0,0,1.4,0.1l-1.4-0.1l0.2-1.1l-0.1-0.1L357.4,311.6z M356.4,311.2l0.1,0.1l0.3-0.7l-0.1-0.2L356.4,311.2z M358.9,310.4
				l0,0.6l0.2,0.2l0.1-0.7L358.9,310.4z M357.5,310.2l1.5-0.2v0L357.5,310.2z M356.2,309.9L356.2,309.9l-0.1,0.2L356.2,309.9
				L356.2,309.9z M332,310l0.8,0.8l-0.1,0.1l1-0.1l-0.7-0.9L332,310z M358.9,310l0.3-0.1l-0.2,0l0,0l-0.2-0.1L358.9,310z
				 M356.9,309.5l-0.2,0.3l0,0.1L356.9,309.5L356.9,309.5z M363.7,309.4L363.7,309.4L363.7,309.4L363.7,309.4L363.7,309.4z M325,310
				l0.8,1.3l2.3-0.6l-0.8-1.3L325,310z M291.7,311.6l1.4,0.1l0.5-0.9l0,0.1l0.3-1.3l-1.6-0.3L291.7,311.6z M335.7,309.5l-0.3-0.2
				l-0.2-0.1L335.7,309.5z M319.5,309.8l0.8,1.6l2.3-0.8l-0.8-1.6L319.5,309.8z M334.8,309.1l0.2,0L334.8,309.1L334.8,309.1z
				 M360.3,309.7l0.2,0.1l0-0.8l-0.2-0.1L360.3,309.7z M313.8,309.6l0.7,1.9l2.3-0.8l-0.6-1.9L313.8,309.6z M279.9,310.6l1,0.6
				l0.9-1.6l-0.9-0.7L279.9,310.6z M333.8,309l0.4,0.1l-1.8-0.1l-0.4,0.1l0.6,0.6l2.4,0.1l-0.7-0.7l0.9,0.2l-0.8-0.4l0.4,0l-1.7-0.5
				L333.8,309z M307.9,309.1l0.4,2.2l2.3-0.7l-0.4-2.1L307.9,309.1z M357.3,308.6L357.3,308.6l-0.4,0.7l-0.6,0.4L357.3,308.6
				L357.3,308.6L357.3,308.6l-1,1.1l-0.8,0.5l1.5-1c-0.1,0-0.1,0-0.1,0l0.5-0.9l0-0.1L357.3,308.6z M358.4,308l-0.1,0.9l-0.7,0.3
				l0.2-0.7l-0.1,0l0,0l-0.3,0.9l0.1,0.1l0.1-0.3l-0.1,0l1.6-0.7l-0.7,0.3l0.1-0.9L358.4,308z M326,308.1l1,1.2l2.4-0.2l-1-1.2
				L326,308.1z M301.6,308l0.1,2.4l2.2-0.4l-0.1-2.3L301.6,308z M358.6,307.6L358.6,307.6l-0.1-0.2l0,0.3l-0.6,0.5l0.1-0.2l-0.1-0.1
				l-0.1,0.4l-0.2,0.2l1.3-1.1L358.6,307.6z M361.8,307.9l0.2,0.1l-0.1-0.6l-0.2-0.1L361.8,307.9z M323.3,307.6l0.4-0.4L323.3,307.6
				z M320.4,307.4l1.1,1.5l1.2-0.3l-0.1-0.2l0.8-0.8l-0.5-0.8L320.4,307.4z M330.5,307.2l-0.5-0.4l-0.2-0.1L330.5,307.2z
				 M359.3,307.8l0.1,0.1l0-1.1l-0.1-0.1L359.3,307.8z M365.4,306.5L365.4,306.5L365.4,306.5L365.4,306.5L365.4,306.5z M358.4,306.3
				l-0.1,0.5l0,0l0.1-0.7L358.4,306.3z M328.8,306.9l0.1,0.1l-2.1-0.2l1.1,1l1.9,0.2l-0.5-0.5l0.9-0.1l-0.6,0.1l-0.4-0.4l1,0.3
				l-1.4-0.9l-1.1-0.4L328.8,306.9z M314.9,306.7l0.2,0.4l0,0.1l0.8,1.5l2.3-0.7l-0.9-1.9L314.9,306.7z M283.6,308.1l1.4,0.5l0.9-2
				l-1.3-0.7L283.6,308.1z M360.3,305.6l0.1,0.6l0.1,0.1l-0.1-0.8l0,0L360.3,305.6z M309.2,306l0.8,2.2l2.3-0.8l-0.8-2.1L309.2,306z
				 M358.4,306.2l-0.5,1.3l0.6-1.4l0.1-0.8l0,0L358.4,306.2z M326.1,305L326.1,305L326.1,305L326.1,305z M358.9,304.8l0,1l0.1,0
				l0-1.3L358.9,304.8z M303.3,304.9l0.5,2.4l2.4-0.6l-0.5-2.3L303.3,304.9z M324.6,304.4l0.9,0.4l0.4,0.2l-1.5-0.8L324.6,304.4z
				 M323.2,305.1l-2,0.2l1.3,1.5l1-0.1l-0.8-1.2l0.9-0.2l0,0l0,0l0,0l0,0l0,0h0l0.4-0.1l-1-1.1l-1.1-0.1L323.2,305.1z M325.6,304.7
				l-1.3-1l-0.1,0L325.6,304.7z M361.4,304l0.1,0.1l-0.1-0.5l-0.1,0L361.4,304z M359.4,304.5L359.4,304.5L359.4,304.5l0-1.1l-0.1,0
				L359.4,304.5z M287.1,305.7l1.8,0.3l0.7-2.3l-1.7-0.5L287.1,305.7z M366.8,303L366.8,303L366.8,303L366.8,303L366.8,303z
				 M322.6,302.8l0.6,0.5l-0.9-0.4l1.1,0.8l0.6,0.1l-0.8-0.6L322.6,302.8L322.6,302.8z M360.1,302.6L360.1,302.6L360.1,302.6
				L360.1,302.6z M299,303l-1.8,0.1l0.1,1.8l-0.8,1.3l-1.5-0.1l-0.3,2.5l1.3,0l-0.3-1.2l1.8-2.7l0.4,0.9l1.9-0.2l0-0.2l-0.1,0.1
				l-0.6-2.9C299,303,299,303,299,303 M358.9,302.7L358.9,302.7L358.9,302.7l0-0.2L358.9,302.7z M364.4,302.1L364.4,302.1
				L364.4,302.1L364.4,302.1L364.4,302.1z M360,302.2l-0.1-0.3l-0.1,0l0.1,0.5l-0.2,0.6l0.6-1.5L360,302.2z M358.8,301.4l0.1,1.1
				l-0.1,1.4l0.1-1.4v0l0-0.1l0,0L358.8,301.4L358.8,301.4z M275.1,303.1l1.1,0.8l0.7-1.1l0,0l-0.2-1.2l-0.3-0.3L275.1,303.1z
				 M304.8,301.9l1,2.5l2.3-0.7l-0.9-2.4L304.8,301.9z M290.3,303.2l2.1,0.1l0.3-2.5l-2.1-0.3L290.3,303.2z M319.4,301.8l-1.9-0.8
				l0.7,0.7l-0.5,0.1l0.6,1.1l-1.2-0.1l0.7,0.8l-1.3,0.3l0.3,0.6l-0.6,0.3l0.8,1.1l2.2-0.6l-1.2-1.7l1.9-0.2l-1.3-1.5l1.7,0.2
				l-1.5-1.5l1.2,0.5l-2-1.3L319.4,301.8z M302.5,301.7l-0.3-1.7C302.3,300.5,302.4,301,302.5,301.7 M358.9,300.1L358.9,300.1l0.2,1
				l0.1,0L358.9,300.1L358.9,300.1z M320.1,301.3l0.3,0.2l-1.9-1.5L320.1,301.3z M299.2,300.2l0.4,1.6l-0.7,0.6l2.2-2.1l0.7,2.1
				l0.4-0.1l-0.5-2.6L299.2,300.2z M318.6,299.9l-0.2-0.2l-0.1-0.1L318.6,299.9z M317.3,299.5l0.4,0.2l-0.4-0.3l-0.5-0.2
				L317.3,299.5z M279.2,301.3l1.5,0.7l1-2.1l-1.4-0.9L279.2,301.3z M308.1,298.4l0.1,0.3l-1,0l-1.2,0.4l1.4,2.5l2.1-0.8
				L308.1,298.4L308.1,298.4z M293.2,297.8l0.1,2.9l2.3-0.2l-0.1-2.7L293.2,297.8z M283.8,297.3l-0.7,2.1l1.9,0.5l0.8-2.4l-1.5-0.6
				L283.8,297.3z M300.8,297.4l1.1,2.8l0.3-0.1c-0.3-1.6-0.3-1.6-0.3-1.6l1.6-0.7l-0.4-1L300.8,297.4z M312.3,296.8L312.3,296.8
				l-0.9-0.5L312.3,296.8z M307.5,296.1l0.5,1.9l0.6,0.9l1.8-0.7l-0.7-1l-2.1-0.7L307.5,296.1L307.5,296.1z M314.1,296.9l-1.2-0.9
				l0.2,0.2l-0.7,0l0.3,0.8l-0.3-0.2l1,1l-1.6,0.4l1.5,1.7l-2,0.6l1.4,1.9l-2.2,0.7l1.2,2.2l2.3-0.7l-1-1.9l2-0.6l-1.2-1.7l1.8-0.3
				l-1.4-1.6l1.5,0l-1.6-1.6l1.2,0.6l-1.8-1.6L314.1,296.9z M310.6,295.8l0.8,0.5L310.6,295.8L310.6,295.8z M310.3,296.3l0.5-0.2
				l-0.2-0.3l-0.6-0.3L310.3,296.3z M312.8,295.4l-0.4-0.3l-0.1-0.1L312.8,295.4z M287,295.6l-0.3,1.9l2.2,0.2l0.4-2.7l-0.9-0.2
				L287,295.6z M295.4,295.2l0.6,3l2.4-0.5l-0.6-2.8L295.4,295.2z M266.5,296.2l0.7,1l1.2-1.2l-0.6-1.1L266.5,296.2z M302.1,294.6
				l1.6,2.8l1.3-0.6l-0.2-1.3l2.6,0l-2.3,0l-1-1.8L302.1,294.6z M271.3,295.3l1.1,1l1.3-1.7l-1-1.2L271.3,295.3z M292.8,292.7
				l0.1,0.5l2.3-0.5l-0.1-0.3L292.8,292.7z M290.3,293.9l-0.3,0.2l0,1.3l2.3-0.1l0-2.5l-0.9,0.1l0-0.4l-1.3-0.1L290.3,293.9z
				 M275.8,294.3l1.5,0.9l1.2-2.1l-1.4-1.1L275.8,294.3z M297.3,292.6l1.2,3l2.2-0.8l-1.1-2.9L297.3,292.6z M308.8,293.5l0.6,0.7
				l0,0.1L308.8,293.5z M308.1,291.8l-0.5-0.4l-0.5,0.3l1.4,1.6l-1.3,0.7l0,0l2.2,0.8l-0.5-1.4l1.4,0.9l0.7,0.4l-0.7-0.4l0,0
				l-2.6-2.8L308.1,291.8z M303,291.9l2,3l1.5-1l-2-3L303,291.9z M301.6,290.6L301.6,290.6l-0.1-0.2L301.6,290.6z M279.9,293
				l1.9,0.7l1-2.5l-1.8-0.9L279.9,293z M299.4,289.5l0,2l0.8,1.6l1.7-1.1l-1-1.9l-1.5-0.8L299.4,289.5z M303.3,289.3l2.4,3.1
				l0.9-0.9l-0.6-0.8l0,0.6L303.3,289.3L303.3,289.3z M283.8,291.6l2.2,0.4l0.5-2.8l-2.2-0.6L283.8,291.6z M299.5,287.2l0.1,0.1
				l0.1-0.3L299.5,287.2z M294.3,287.6l0.5,1.5l0.2,0l0,0.9l0.3,1l0.5-0.2l-0.3-0.1l0.4-3.1l0.6,0.2l-0.3-0.9L294.3,287.6z
				 M287.3,290l2.3,0l0-3l-2.3-0.2L287.3,290z M263.5,287.5l0.8,1.2l1.5-1.2l-0.6-1.3L263.5,287.5z M299.8,286.9l2.2,1.2l-1.4-2.3
				L299.8,286.9z M268.6,287.5l1.1,1.2l1.5-1.6l-1-1.4L268.6,287.5z M273.3,287.2l1.5,1.1l1.4-2.1l-1.4-1.3L273.3,287.2z
				 M289.9,284.8l0.5,3.4l2.2-0.4l-0.5-3.2L289.9,284.8z M299.8,284.4l0,0.1l2.4,3.6l0.3-1.5l-0.8-1.2l-1.4-1.5L299.8,284.4z
				 M277.7,286.6l1.9,0.9l1.2-2.4l-1.8-1.1L277.7,286.6z M295.8,285.1l1.2,2.7l0.9,0.3l0.9-0.8l-1.6-3.4L295.8,285.1z M294.9,283.9
				l0.1-0.1l-0.2-0.1L294.9,283.9z M281.7,285.7l2.2,0.6l0.7-2.8l-1.2-0.4l-1-0.2L281.7,285.7z M298.6,286.1l0.5-1.3l-2.4-2.3
				L298.6,286.1z M288.5,283l0.8-0.2l-0.8-0.4L288.5,283z M292,282.6l1,3.5l1.9-1l-0.5-1.8l-1.5-1.1L292,282.6z M285.5,282l-0.2,2.5
				l2.3,0.1l0.2-2.5l-1.6-0.8l-0.5-0.1L285.5,282z M297.2,280.9l0.5,0.5l-0.4-0.8L297.2,280.9z M289.5,279.4l1,0.5l0-0.6
				L289.5,279.4z M293.8,279.9l1.5,1.1l0.4-0.2l-0.9-2.2L293.8,279.9z M267.1,279.9l1.1,1.4l1.7-1.4l-0.9-1.6L267.1,279.9z
				 M271.9,280.3l1.5,1.3l1.7-1.9l-1.3-1.5L271.9,280.3z M261.9,279.1l0.7,1.4l1.7-1l-0.6-1.5L261.9,279.1z M276.4,280.3l0.2,0.1
				l2.4-0.3l0.6-1.1l-1.7-1.3L276.4,280.3z M256.4,278l0.5,1.3l1.5-0.6l-0.3-1.3L256.4,278z M280.5,279.9l0.9,0.3l0.5-1.2l1.2,0.3
				l0.5-1.3l-2-0.9L280.5,279.9z M250.4,276.6l0.1,1l1.2-0.4l0-1.1L250.4,276.6z"/>
		</defs>
		<clipPath id="SVGID_14_">
			<use xlink:href="#SVGID_13_"  style="overflow:visible;"/>
		</clipPath>
		
			<linearGradient id="SVGID_15_" gradientUnits="userSpaceOnUse" x1="43.4437" y1="555.5942" x2="45.0774" y2="555.5942" gradientTransform="matrix(20.3682 -29.4155 29.4155 20.3682 -16931.7012 -9713.2695)">
			<stop  offset="0" style="stop-color:#B64D9C"/>
			<stop  offset="0.3725" style="stop-color:#B64D9C"/>
			<stop  offset="0.8017" style="stop-color:#7362A9"/>
			<stop  offset="1" style="stop-color:#536CAF"/>
		</linearGradient>
		<polygon class="st4" points="329.1,393.1 396.1,296.4 288.2,221.6 221.2,318.4 		"/>
	</g>
	<g>
		<defs>
			<path id="SVGID_16_" d="M353.4,334.1l0.5,0.2l-0.3-2.1l-0.5-0.1L353.4,334.1z M344,332.1l0.6,0.5l-0.1-2.4l-0.6-0.3L344,332.1z
				 M358.8,329.4l0.8,0.3l-0.5-2.2l-0.7-0.2L358.8,329.4z M333.4,328.7l0.7,0.8l0.1-2.7l-0.7-0.6L333.4,328.7z M351,328.4l0.9,0.6
				l-0.4-2.5l-0.8-0.4L351,328.4z M342.3,326.3l1,1l-0.1-2.7l-1-0.7L342.3,326.3z M362.2,324.7l1,0.4l-0.7-2l-0.9-0.3L362.2,324.7z
				 M355.8,324.4l1.1,0.7l-0.6-2.3l-1-0.5L355.8,324.4z M348.6,323.3l1.3,1.1l-0.4-2.4l-1.2-0.8L348.6,323.3z M321.7,323.5l0.8,1.2
				l0.5-2.9l-0.8-0.9L321.7,323.5z M332.6,322.7l1.1,1.4l0.3-2.8l-1.1-1.1L332.6,322.7z M358.9,320.5l1.3,0.7l-0.7-1.9l-1.2-0.5
				L358.9,320.5z M340.6,321l1.4,1.5l0-2.5l-1.3-1.2L340.6,321z M364.1,320.1l1.2,0.4l-0.8-1.8l-1.1-0.3L364.1,320.1z M352.9,320.1
				l1.5,1l-0.5-2l-1.4-0.8L352.9,320.1z M346.2,318.8l1.6,1.4l-0.3-2l-1.5-1.2L346.2,318.8z M355.6,317.1l1.7,0.8l-0.7-1.5l-1.6-0.7
				L355.6,317.1z M360.5,316.9l1.5,0.6l-0.8-1.5l-1.4-0.4L360.5,316.9z M331.7,317.4l1.4,1.9l0.4-2.5l-1.4-1.6L331.7,317.4z
				 M350.1,316.5l1.8,1.1l-0.4-1.5l-1.7-1L350.1,316.5z M322,317.6l1.1,1.9l0.8-2.9l-1.1-1.6L322,317.6z M364.8,316l1.3,0.3
				l-0.9-1.4l-1.2-0.2L364.8,316z M338.9,316.4l1.7,1.8l0.1-2l-1.6-1.5L338.9,316.4z M344,315.2l1.9,1.5l-0.1-1.4l-1.9-1.3
				L344,315.2z M309,316.5l0.7,1.6l1.1-3l-0.8-1.3L309,316.5z M352.5,314.5l2,0.8l-0.5-1l-1.9-0.7L352.5,314.5z M357.1,314.4
				l1.8,0.5l-0.7-1l-1.7-0.5L357.1,314.4z M347.4,313.9l2.1,1l-0.2-0.9l-2-0.9L347.4,313.9z M361.1,313.7l1.6,0.3l-0.8-1l-1.6-0.2
				L361.1,313.7z M349.7,312.9l2.2,0.6l-0.3-0.5l-2.1-0.5L349.7,312.9z M354,312.8l2,0.4l-0.5-0.6l-2-0.3L354,312.8z M347.3,312.1
				l2.3,0.2l-0.1-0.1L347.3,312.1L347.3,312.1z M345,312.3l2.3,0.8l-0.1-0.4l-2.2-0.7L345,312.3z M351.3,312.1l2.2,0l-0.3-0.2
				l-2.1,0L351.3,312.1z M341.8,312.6l2.2,1.3l0.1-0.8l-2.1-1.2L341.8,312.6z M337.3,312.9l1.9,1.8l0.3-1.3l-1.9-1.6L337.3,312.9z
				 M357.8,312.2l1.9,0.2l-0.6-0.6l-1.8-0.1L357.8,312.2z M364.6,312.4l1.5,0.1l-0.9-1l-1.4,0L364.6,312.4z M330.9,313l1.7,2.2
				l0.6-1.8l-1.6-1.9L330.9,313z M354.5,311.3l0.3,0.3l2-0.1l-0.4-0.3L354.5,311.3z M339.9,311l2.3,1l0.3-0.2l-2.3-0.9L339.9,311z
				 M292.3,313.1l0.4,1.1l1.3-2.6l-0.5-0.9L292.3,313.1z M322.2,312.5l1.3,2.4l1-2.3l-1.3-2.1L322.2,312.5z M360.4,310.5l0.6,0.6
				l1.7,0l-0.7-0.6L360.4,310.5z M355.1,310.7l0.2,0.1l1.8-0.6l-0.3-0.1L355.1,310.7z M357.5,310.2l0.4,0.3l1.8-0.3l-0.5-0.3
				L357.5,310.2z M336.3,310l-0.5,0.4l2.2,1.6l0.5-0.6l-2-1.4l0.3,0.1l0.6,0l-2.3-1.1l-0.7-0.1L336.3,310z M363.1,308.9l0.7,0.6
				l1.5-0.2l-0.8-0.7L363.1,308.9z M357.5,309.2l0.3,0.1l1.6-0.8l-0.3-0.1L357.5,309.2z M310.7,310.9l0.9,2.4l1.5-2.8l-1-2.1
				L310.7,310.9z M360.1,308.7l0.5,0.4l1.6-0.4l-0.6-0.4L360.1,308.7z M357.6,308.5l0.2,0l1.4-1.2l-0.2,0L357.6,308.5z M322.5,308.4
				l1.5,2.6l1.3-1.5l-1.6-2.3L322.5,308.4z M359.6,307.4l0.4,0.2l1.5-0.9l-0.4-0.2L359.6,307.4z M365.3,306.9l0.8,0.6l1.3-0.4
				l-0.8-0.7L365.3,306.9z M330.3,307.3l-0.9,0.1l1.6,1.4l-0.8,0.8l1.9,2.1l0.8-1l-1.8-1.9l0.3,0.3l1-0.2l-1.8-1.5l0.2,0.1l1.1,0.4
				l-2.2-1.3l-1.1-0.4L330.3,307.3z M362.2,306.8l0.6,0.4l1.4-0.6l-0.6-0.4L362.2,306.8z M359.2,306.4l0.2,0.1l1.2-1.2l-0.2-0.1
				L359.2,306.4z M295.6,307.4l0.6,2.2l1.9-3l-0.7-1.8L295.6,307.4z M312.2,306.2l1.1,2.9l1.8-2l-1.2-2.6L312.2,306.2z M361.3,305.3
				l0.4,0.2l1.2-1l-0.4-0.2L361.3,305.3z M358.9,305.6l0.1,0.1l0.8-1.5l-0.1-0.1L358.9,305.6z M367.1,304.6l0.8,0.6l1.1-0.5
				l-0.9-0.6L367.1,304.6z M363.9,304.6l0.6,0.4l1.3-0.7l-0.7-0.4L363.9,304.6z M324,303.9l-1.3-0.3l1.3,1.5l-1.3,0.4l1.6,2.4
				l1.5-0.5l-1.4-1.8l0.1,0.1l1.6,0.3l-1.6-1.6l1.6,0.8l-2-1.4l-1.6-0.8L324,303.9z M360.4,304l0.3,0.2l0.9-1.3l-0.3-0.2L360.4,304z
				 M313.7,302.6l1.1,2.9l2.1-0.9l-1.3-2.7L313.7,302.6z M362.5,302.8l0.5,0.3l1-1.1l-0.5-0.3L362.5,302.8z M359.7,303l0.2,0.2
				l0.6-1.5l-0.2-0.2L359.7,303z M365.2,302.1l0.7,0.4l1.1-0.8l-0.7-0.4L365.2,302.1z M359.2,302l0.1,0.1l0.2-1.6l-0.1-0.2
				L359.2,302z M298.8,302.4l0.6,3l2.4-2.5l-0.8-2.6L298.8,302.4z M361.3,301.4l0.3,0.2l0.7-1.4L362,300L361.3,301.4z M363.4,300.1
				l0.5,0.3l0.8-1.2l-0.5-0.3L363.4,300.1z M276.6,301.2l0.3,1.6l2.1-2.7l-0.5-1.4L276.6,301.2z M360.2,300.2l0.2,0.2l0.4-1.5
				l-0.2-0.2L360.2,300.2z M317.6,299.6l-1.8-0.8l0.9,1.5l-1.9-0.2l1.2,2.6l2.2,0.1l-1.1-2l2.2,0.9l-1.3-1.7l2,1.3l-1.6-1.4
				l-2.1-1.4L317.6,299.6z M366.1,299.3l0.7,0.4l0.9-1l-0.7-0.4L366.1,299.3z M359.3,298.9l0.2,0.2l0.1-1.5l-0.2-0.2L359.3,298.9z
				 M301.9,298.4l0.6,3.3l2.7-1.4l-0.8-3L301.9,298.4z M362.2,297.2l-0.5,1.4l0.4,0.3l0.5-1.4l-0.3-0.2H362.2z M305.3,298.8l2.9-0.1
				l-0.8-3l-2.6,0L305.3,298.8z M281.8,296.3l0.2,2.7l2.9-2.7l-0.5-2.4L281.8,296.3z M309.6,294.8l-2.4-0.9l0.5,2.6l3,0.9l-0.7-2.1
				l2.6,1.5l-0.8-1.7l2.2,1.7l-1-1.3l-2.6-2l0.6,1l-2.1-1.3L309.6,294.8z M286.9,292.3l0,3.4l3.5-1.8l-0.3-3.1L286.9,292.3z
				 M356.8,290.8l0.3,0.3l-0.4-1.3l-0.3-0.3L356.8,290.8z M363.5,290.8l0.7,0.4l0.2-1.3l-0.7-0.4L363.5,290.8z M359.3,290.7l0.5,0.4
				l-0.2-1.5l-0.5-0.4L359.3,290.7z M291.7,289.3l-0.2,3.6l3.7-0.4l-0.2-3.4L291.7,289.3z M357.3,289.1l0.4,0.4l-0.4-1.4l-0.4-0.4
				L357.3,289.1z M360.8,289l0.6,0.4l0-1.4l-0.6-0.5L360.8,289z M299.4,288.5l-3.4-1l-0.4,3.1l3.8,0.9l0-2.3l3.6,1.9l0-2.1l2.9,2.2
				l0-1.5l2.2,2l-0.2-0.9l-3-2.8l-0.1,0.6l-2.1-1.6l-0.3,1.2l-2.7-1.5L299.4,288.5z M355.4,287.4l0.4,0.4l-0.5-1.2l-0.3-0.4
				L355.4,287.4z M362.8,287.4l0.8,0.4l0.1-1.3l-0.8-0.5L362.8,287.4z M358.2,287.4l0.6,0.4l-0.3-1.4l-0.6-0.5L358.2,287.4z
				 M365.3,286l1,0.4l0.2-1.2l-1-0.5L365.3,286z M260.6,286.9l-0.1,2.2l3.2-2.5l-0.2-1.9L260.6,286.9z M355.9,285.7l0.5,0.4
				l-0.5-1.4l-0.5-0.4L355.9,285.7z M353.6,285.3l0.3,0.3l-0.5-1l-0.3-0.3L353.6,285.3z M359.7,285.6l0.7,0.5l-0.2-1.4l-0.8-0.5
				L359.7,285.6z M353.6,283.9l0.5,0.4l-0.6-1.2l-0.4-0.4L353.6,283.9z M356.8,283.9l0.7,0.5L357,283l-0.7-0.5L356.8,283.9z
				 M361.6,283.8l0.9,0.5l-0.1-1.3l-0.9-0.5L361.6,283.8z M351.7,282.9l0.2,0.2l-0.5-0.7l-0.2-0.2L351.7,282.9z M268,283.3l-0.5,3.3
				l4.1-2l0.1-2.9L268,283.3z M364.1,282.3l1.1,0.4l0-1.2l-1.1-0.4L364.1,282.3z M354.1,282.3l0.6,0.5l-0.6-1.3l-0.6-0.5
				L354.1,282.3z M351.4,281.8l0.4,0.3l-0.6-0.9l-0.4-0.3L351.4,281.8z M358.2,282.1l0.9,0.5l-0.3-1.4l-0.9-0.5L358.2,282.1z
				 M275.2,280.5l-1,3.7l4.6-0.7l0.4-3.5L275.2,280.5z M367.1,280.9l1.1,0.3l0.1-1l-1.2-0.4L367.1,280.9z M351.5,280.5l0.6,0.4
				l-0.7-1.1l-0.6-0.4L351.5,280.5z M355,280.5l0.8,0.5l-0.6-1.4l-0.8-0.5L355,280.5z M280.4,282.5l4.8,0.8l0.8-3.4l-4.2-0.9
				L280.4,282.5z M360.1,280.2l1,0.5l-0.2-1.3l-1.1-0.5L360.1,280.2z M370.6,279.8l1.1,0.2l0.1-0.9l-1.2-0.3L370.6,279.8z
				 M286.1,281.3l4.7,2.3l0.9-2.3l3.8,2.9l1-1.8l2.8,2.6l1-1l2,2.1l0.8-0.2l-3.3-3.6l-1.2-0.2l0.9,0.9l-2.6-2.6l-1.5,0.6l-2.5-2
				l-1.4,1.4l-3.6-1.9L286.1,281.3z M374.4,279l0.9,0.1l0.1-0.7l-1-0.1V279z M378.5,278.5l0.6,0l0-0.6l-0.7-0.1L378.5,278.5z
				 M348.6,278l0.3,0.4l0.5,0.4l-0.7-0.9l-0.1,0V278z M352,278.9l0.8,0.5l-0.7-1.3l-0.8-0.5L352,278.9z M362.6,278.5l1.2,0.4
				l-0.1-1.2l-1.2-0.4L362.6,278.5z M299.5,281.8l1.3,1.4l-3-4.2l-1.6-1.8L299.5,281.8z M356.4,278.6l1,0.5l-0.5-1.4l-1.1-0.5
				L356.4,278.6z M349.1,277.1l0.7,0.5l-0.8-1.1l-0.7-0.5L349.1,277.1z M365.5,276.9l1.2,0.3l0-1.1l-1.3-0.3L365.5,276.9z
				 M352.9,277.1l1,0.5l-0.7-1.3l-1-0.6L352.9,277.1z M358.3,276.6l1.2,0.5l-0.3-1.3l-1.2-0.5L358.3,276.6z M296.7,279.7l1.9,0.9
				l-3.3-4.4l-2.4-1.4L296.7,279.7z M368.8,275.5l1.2,0.2l0-0.9l-1.3-0.2L368.8,275.5z M349.6,275.6l0.9,0.5l-0.8-1.2l-1-0.5
				L349.6,275.6z M346.1,275l0.6,0.4l-0.8-0.9l-0.6-0.4L346.1,275z M354.3,275.1l1.2,0.5l-0.6-1.4l-1.2-0.6L354.3,275.1z
				 M372.5,274.3l1,0l0-0.8l-1-0.1L372.5,274.3z M360.6,274.6l1.3,0.4l-0.2-1.2l-1.4-0.4L360.6,274.6z M376.4,272.9l0.1,0.6l0.7,0
				l0-0.6L376.4,272.9z M346.3,273.8l0.9,0.5l-0.9-1.1l-0.9-0.5L346.3,273.8z M350.5,273.7l1.2,0.6l-0.8-1.3l-1.2-0.6L350.5,273.7z
				 M363.4,272.8l1.4,0.2l-0.1-1.1l-1.5-0.3L363.4,272.8z M356,272.9l1.4,0.5l-0.5-1.3l-1.4-0.5L356,272.9z M235.6,273.1l-0.1,1.4
				l2.8-1.7l-0.1-1.2L235.6,273.1z M346.8,272.3l1.1,0.6l-1-1.2l-1.1-0.6L346.8,272.3z M343,271.8l0.8,0.4l-0.9-0.8l-0.7-0.4
				L343,271.8z M351.8,271.6l1.4,0.6l-0.7-1.4l-1.4-0.6L351.8,271.6z M366.6,271.1l1.3,0.1l0-0.9l-1.4-0.1L366.6,271.1z
				 M343.2,270.6l1.1,0.5l-1-1l-1-0.5L343.2,270.6z M358.2,270.8l1.5,0.4l-0.3-1.2l-1.6-0.4L358.2,270.8z M347.7,270.4l1.4,0.6
				l-0.9-1.3l-1.4-0.6L347.7,270.4z M245.2,270.5l-0.7,2.7l4.5-1.9l0.3-2.4L245.2,270.5z M370.1,268.8l0.1,0.8l1,0l0-0.8
				L370.1,268.8z M294.3,272.9l0.7,1.4l-0.5-0.9l-2.3-2.7l3,5l2,2.3l-1.7-2.9l-1.6-3.6l-1.6-3L294.3,272.9z M353.4,269.3l1.6,0.5
				l-0.6-1.3l-1.6-0.5L353.4,269.3z M343.8,269.1l1.4,0.6l-1.1-1.2l-1.4-0.6L343.8,269.1z M255,268.6l-1.6,3.6l5.4-0.9l0.9-3.3
				L255,268.6z M339.5,268.7l0.9,0.5l-1-0.8l-0.9-0.5L339.5,268.7z M269.9,270.8l5.6,2.5l1.6-2.4l5.2,3.8l2.2-2l3.6,3.5l2.5-1
				l2.3,2.7l2.4,0l-3.7-4.4l-2.9-0.6l1.1,1.3l-3.1-3.2l-3,0.5l-3.2-2.5l-3.1,1.8l0.4-0.7l-4.8-2.3L269.9,270.8z M262,271.3l5.7,0.7
				l1.6-3.6l-5-0.8L262,271.3z M373.9,267.7l0.1,0.6l0.7-0.1l-0.1-0.6L373.9,267.7z M360.9,268.6l1.5,0.2l-0.2-1.1l-1.6-0.2
				L360.9,268.6z M291.6,272.8l3,2.2l-3-5l-3.5-2.8L291.6,272.8z M348.9,268.2l1.6,0.6l-0.8-1.4l-1.7-0.6L348.9,268.2z M339.9,267.6
				l1.3,0.6l-1.1-1l-1.3-0.5L339.9,267.6z M344.6,267.2l1.6,0.6l-1-1.3l-1.6-0.6L344.6,267.2z M355.5,266.9l1.7,0.3l-0.4-1.3
				l-1.8-0.4L355.5,266.9z M364,266.6l1.4,0l-0.1-1l-1.5,0L364,266.6z M335.8,265.8l1.2,0.5l-1.1-0.8l-1.1-0.5L335.8,265.8z
				 M340.4,266.1l1.6,0.6l-1.1-1.2l-1.6-0.6L340.4,266.1z M291.5,269.5l2.4,2.8l-2.1-4.5l-2.7-3.2L291.5,269.5z M350.5,265.7
				l1.8,0.5l-0.7-1.4l-1.9-0.5L350.5,265.7z M287,270.1l3.8,1.6l-3.4-5.3l-4.4-2.3L287,270.1z M336.2,264.8l1.6,0.6l-1.2-1l-1.5-0.6
				L336.2,264.8z M367.2,263.9l0.2,0.8l1.1-0.1l-0.1-0.8L367.2,263.9z M345.7,264.9l1.9,0.5l-0.9-1.4l-1.9-0.6L345.7,264.9z
				 M358,264.5l1.7,0.2l-0.3-1.2l-1.8-0.2L358,264.5z M341.2,264.1l1.9,0.6l-1.1-1.3l-1.9-0.6L341.2,264.1z M331.8,263.1l1.5,0.5
				l-1.1-0.7l-1.4-0.5L331.8,263.1z M370.9,262.4l0.2,0.6l0.8-0.2l-0.1-0.6L370.9,262.4z M336.8,263.3l1.9,0.6l-1.2-1.1l-1.9-0.6
				L336.8,263.3z M292.1,265.9l0.5,1.9l-0.5-1.5l-1.8-3.4l1.4,4.4l1.7,3.1l-0.6-1.8l-0.5-3.3l-0.9-3.2L292.1,265.9z M352.4,263.1
				l1.9,0.3l-0.5-1.3l-2-0.4L352.4,263.1z M332.2,262.2l1.9,0.6l-1.2-0.9l-1.8-0.5L332.2,262.2z M360.5,261.1l0.3,1l1.6,0l-0.2-1
				L360.5,261.1z M347.2,262.3l2,0.5l-0.8-1.4l-2.1-0.5L347.2,262.3z M287.4,265.8l3.6,2.9l-2.4-5l-3.9-3.5L287.4,265.8z
				 M342.3,261.7l2.1,0.5l-1-1.4l-2.2-0.6L342.3,261.7z M327.5,260.7l1.8,0.5l-1.2-0.7l-1.7-0.5L327.5,260.7z M337.5,261.3l2.2,0.6
				l-1.1-1.3l-2.2-0.6L337.5,261.3z M332.8,260.7l2.2,0.5l-1.2-1.1l-2.2-0.5L332.8,260.7z M354.7,260.4l1.9,0.1l-0.4-1.2l-2.1-0.2
				L354.7,260.4z M328.1,259.8l2.2,0.5l-1.3-0.9l-2.1-0.5L328.1,259.8z M363.8,258.9l0.3,0.9l1.3-0.2l-0.2-0.9L363.8,258.9z
				 M288.6,263.3l2.8,3.4l-1.4-4.4l-3-3.8L288.6,263.3z M323,258.7l2.1,0.5l-1.2-0.6l-2-0.5L323,258.7z M348.9,259.4l2.2,0.3
				l-0.6-1.4l-2.3-0.3L348.9,259.4z M290.1,261.8l1.9,3.5l-0.6-3.8l-1.9-3.8L290.1,261.8z M292.5,260.6l0,1.8l0,0.1l0-0.1l0,1.1
				l0.5-2l0.8-1.6l0.9-2.3l-1.3,2.5l-0.3,0.7l0.1-0.3l0.1-3L292.5,260.6z M291.4,261.1l0.9,3.3l0.1-3.4l-0.9-3.5L291.4,261.1z
				 M343.5,258.9l2.3,0.4l-0.8-1.5l-2.4-0.5L343.5,258.9z M333.6,258.6l2.5,0.5l-1.2-1.4l-2.5-0.5L333.6,258.6z M328.7,258.4
				l2.5,0.5l-1.2-1.1l-2.5-0.5L328.7,258.4z M338.5,258.7l2.4,0.5l-1-1.5l-2.5-0.5L338.5,258.7z M323.7,257.9l2.5,0.4l-1.2-0.8
				l-2.4-0.4L323.7,257.9z M367.4,257l0.2,0.6l0.9-0.3l-0.1-0.7L367.4,257z M318.4,257.1l2.4,0.4l-1.1-0.5l-2.3-0.4L318.4,257.1z
				 M356.9,256.5l0.4,1.1l1.8-0.1l-0.3-1.1L356.9,256.5z M260.4,258.1l6.1,4.3l3.4-2l4.6,4.7l4.1-1l2.7,3.5l4.2,0.4l-3.9-5.2
				l-4.9-1.2l1,1.3l-3.5-3.7l-4.4,0.3l-4.5-3.3L260.4,258.1z M282,262.1l4.8,3l-2.8-5.6l-5.3-3.8L282,262.1z M296,257.3l-1,1.1
				l2.4-1.7l0.9-1L296,257.3z M319.2,256.3l2.8,0.3l-1.1-0.8l-2.7-0.3L319.2,256.3z M313.7,255.9l2.7,0.2l-1-0.4l-2.6-0.2
				L313.7,255.9z M324.4,256.4l2.8,0.4l-1.2-1.1l-2.8-0.4L324.4,256.4z M295,257.2l-0.9,2.3l1.8-2.1l0.9-2.3L295,257.2z
				 M300.4,255.7l-0.1,0.2l3-0.7l0-0.1L300.4,255.7z M351,256.3l2.2,0.1l-0.5-1.4l-2.4-0.1L351,256.3z M309.1,255.3l2.9,0l-0.7-0.3
				l-2.8,0L309.1,255.3z M329.4,256.3l2.8,0.5l-1.1-1.4l-2.8-0.5L329.4,256.3z M304.3,255l0.3,0.2l3-0.3l-0.4-0.2L304.3,255z
				 M293.5,257l-0.1,3l1.3-2.5l0.1-3L293.5,257z M314.7,255.2l3,0.1l-0.9-0.7l-2.9-0.1L314.7,255.2z M334.4,256l2.7,0.5l-1.1-1.6
				l-2.8-0.5L334.4,256z M298.8,255.5l-0.6,0.9l2.7-1.2l0.5-0.9L298.8,255.5z M345.1,255.8l2.5,0.3l-0.7-1.6l-2.6-0.3L345.1,255.8z
				 M339.6,255.8l2.6,0.4l-0.9-1.6l-2.8-0.5L339.6,255.8z M250.8,257.1l6.5,2.6l3.2-3.3L255,254L250.8,257.1z M309.7,253.8l0.5,0.7
				l3.1-0.1l-0.6-0.7L309.7,253.8z M291.6,256.8l0.9,3.6l0.7-3l-0.9-3.7L291.6,256.8z M360,254l0.4,0.9l1.5-0.3l-0.2-1L360,254z
				 M320,254.8l3,0.3l-1-1.2l-3-0.3L320,254.8z M302.1,254.4l-0.2,0.8l3-0.8l0.1-0.8L302.1,254.4z M284.2,258.9l4,3.7l-1.6-4.8
				l-4.3-4.2L284.2,258.9z M305.7,253.8l0.2,0.7l3.1-0.4l-0.3-0.7L305.7,253.8z M297.3,254.7l-1,2.3l2.3-1.6l0.9-2.2L297.3,254.7z
				 M289.3,256.7l1.9,3.9l0.1-3.5l-2-4.1L289.3,256.7z M286.8,257.3l3,3.9l-0.7-4.1l-3.1-4.3L286.8,257.3z M240.3,256.3l6.5,0.7
				l2.3-3.4l-5.7-0.8L240.3,256.3z M325.1,254.3l3,0.4l-1-1.5l-3.1-0.4L325.1,254.3z M315.5,253.7l3.2,0.1l-0.8-1.2l-3.2-0.1
				L315.5,253.7z M219.1,253.1l-0.7,1.9l4.2-1.3l0.3-1.8L219.1,253.1z M231.3,252.5l-1.9,3.1l5.8-0.8l1.2-2.9L231.3,252.5z
				 M300.1,253l-0.7,2l2.7-1.1l0.7-1.9L300.1,253z M295.2,253.9l-0.2,3l1.8-2l0.2-3L295.2,253.9z M352.8,252l0.6,1.2l2.1-0.1
				l-0.4-1.2L352.8,252z M330.1,253.6l3,0.4l-1-1.7l-3.1-0.5L330.1,253.6z M310.7,251.8l0.4,1.3l3.2-0.2l-0.5-1.3L310.7,251.8z
				 M275.3,258.4l5.8,2.5l-3.3-6.1l-6.4-3.4L275.3,258.4z M303.3,252l-0.3,1.7l3-0.8l0.3-1.7L303.3,252z M306.8,251.6l0.1,1.5
				l3.1-0.4l-0.1-1.4L306.8,251.6z M363.3,251.6l0.3,0.7l1.1-0.4l-0.2-0.7L363.3,251.6z M335.4,252.9l2.9,0.4l-1-1.8l-3.1-0.4
				L335.4,252.9z M320.6,252.6l3.2,0.3l-0.9-1.6l-3.3-0.3L320.6,252.6z M346.9,252.4l2.5,0.1l-0.6-1.5l-2.7-0.1L346.9,252.4z
				 M340.9,252.4l2.8,0.3l-0.8-1.7l-3-0.3L340.9,252.4z M292.6,253l0.8,3.7l1.3-2.5l-0.7-3.8L292.6,253z M297.5,251.5l-0.3,3
				l2.3-1.5l0.3-3L297.5,251.5z M316.1,251.5l3.3,0.1l-0.6-1.8l-3.4-0.1L316.1,251.5z M325.7,251.4l3.2,0.4l-0.9-1.9l-3.4-0.4
				L325.7,251.4z M289.5,252.1l1.9,4.2l0.7-3.1l-1.9-4.4L289.5,252.1z M311.3,248.8l0.4,2.1l3.3-0.1l-0.3-2.1L311.3,248.8z
				 M300.5,249.7l-0.4,3l2.6-1l0.4-2.9L300.5,249.7z M355.6,249l0.5,1.1l1.8-0.4l-0.3-1.1L355.6,249z M307.5,248.4l0,2.4l3.2-0.3
				l0.1-2.4L307.5,248.4z M303.9,248.6l-0.4,2.9l3-0.5l0.5-2.8L303.9,248.6z M330.9,250.2l3.2,0.4l-0.9-2.1l-3.4-0.5L330.9,250.2z
				 M278.2,254.2l5.4,4l-1.9-5.4l-5.7-4.7L278.2,254.2z M294.4,249.8l0.7,3.8l1.8-2l-0.6-3.9L294.4,249.8z M285.9,251.7l3.1,4.5
				l0-3.7l-3.2-4.8L285.9,251.7z M321.1,249.7l3.4,0.3l-0.8-2.2l-3.5-0.4L321.1,249.7z M348.3,247.5l0.7,1.4l2.4-0.2l-0.5-1.4
				L348.3,247.5z M282,252.2l4.3,4.4l-0.8-4.5l-4.5-4.9L282,252.2z M336.4,249.2l3.1,0.3l-0.9-2l-3.3-0.3L336.4,249.2z M342.5,248.7
				l2.9,0.1l-0.7-1.7l-3.1-0.1L342.5,248.7z M316.5,248.5l3.4,0.3l-0.5-2.5l-3.6-0.3L316.5,248.5z M296.9,247.4l0.5,3.9l2.3-1.5
				l-0.4-3.8L296.9,247.4z M358.7,246.2l0.4,0.8l1.3-0.5l-0.3-0.8L358.7,246.2z M326.2,247.9l3.4,0.4l-0.9-2.4l-3.7-0.5L326.2,247.9
				z M290.6,248.1l1.8,4.5l1.4-2.6l-1.7-4.6L290.6,248.1z M252.6,244.9l5.9,6l5.7-0.9l3.3,4.7l6.1,0.9l-4-5.9l-6.9-1.8l0.7,1
				l-3.9-4.2L252.6,244.9z M311.9,247.8l3.4,0.2l-0.1-3l-3.6-0.2L311.9,247.8z M300,245.6l0.3,3.8l2.7-0.9l-0.2-3.8L300,245.6z
				 M303.6,244.5l0.1,3.7l3-0.4l0.1-3.7L303.6,244.5z M307.5,247.8l3.3,0.1l0.3-3.5l-3.4-0.2L307.5,247.8z M331.7,246.3l3.4,0.3
				l-0.9-2.3l-3.7-0.4L331.7,246.3z M350.7,244.1l0.6,1.2l2.1-0.5l-0.4-1.2L350.7,244.1z M321.4,246.1l3.6,0.4l-0.7-2.8l-3.8-0.5
				L321.4,246.1z M286.1,246.7l3.1,5l0.8-3.3l-3-5.2L286.1,246.7z M337.6,245.1l3.2,0.1l-0.8-2l-3.5-0.1L337.6,245.1z M361.9,243.5
				l0.3,0.5l0.8-0.5l-0.2-0.6L361.9,243.5z M343.3,243.1l0.9,1.6l2.8-0.2l-0.6-1.6L343.3,243.1z M292.5,244.8l1.6,4.7l1.9-2
				l-1.4-4.7L292.5,244.8z M270.6,249.2l6.8,4.2l-2.3-6.2l-7.3-5.2L270.6,249.2z M281,246l4.5,5.1l0-4.1l-4.5-5.6L281,246z
				 M316.6,244.7l3.6,0.5l-0.4-3.3l-3.9-0.6L316.6,244.7z M326.7,243.8l3.7,0.4l-0.8-2.7l-4-0.5L326.7,243.8z M275.7,246.6l5.8,4.9
				l-1-5.1l-5.9-5.6L275.7,246.6z M295.2,242.3l1.3,4.7l2.4-1.5l-1.1-4.7L295.2,242.3z M241.3,242.1l6.8,4.6l5.2-2.3l-5.7-4.1
				L241.3,242.1z M353.4,240.7l0.5,1l1.7-0.6l-0.4-1L353.4,240.7z M311.7,243.9l3.6,0.5l-0.1-4l-3.8-0.6L311.7,243.9z M298.6,240.5
				l1.1,4.7l2.9-0.9l-0.8-4.7L298.6,240.5z M287.3,242.4l2.9,5.3l1.5-2.7l-2.8-5.5L287.3,242.4z M332.5,241.9l3.6,0.2l-0.9-2.4
				l-3.9-0.2L332.5,241.9z M302.5,239.5l0.7,4.6l3.2-0.3l-0.5-4.5L302.5,239.5z M307.3,243.7l3.4,0.2l-0.2-4.3l-3.7-0.3L307.3,243.7
				z M345.3,239.2l0.8,1.5l2.6-0.5l-0.6-1.5L345.3,239.2z M337.8,238.8l1.1,2l3.2-0.2l-0.8-2L337.8,238.8z M321.5,241.6l3.8,0.5
				l-0.7-3.3l-4.2-0.6L321.5,241.6z M356.3,237.6l0.4,0.7l1.1-0.7l-0.3-0.7L356.3,237.6z M289.5,238.9l2.7,5.5l2.1-2.1l-2.4-5.6
				L289.5,238.9z M229.1,239.5l7.3,2.7l4-3.1l-6.2-2.5L229.1,239.5z M281.2,240.5l4.4,5.7l0.9-3.5l-4.3-6.1L281.2,240.5z
				 M261.8,244.2l7.9,3.4l-2.9-6.7l-8.5-4.5L261.8,244.2z M327.1,239l3.9,0.3l-0.9-3l-4.3-0.4L327.1,239z M316.3,240l3.9,0.7l-0.5-4
				l-4.2-0.9L316.3,240z M292.5,236.2l2.3,5.6l2.7-1.5l-2-5.6L292.5,236.2z M332,234.6l1.3,2.5l3.7,0l-0.9-2.4L332,234.6z
				 M347.6,235.3l0.7,1.2l2.1-0.8l-0.5-1.2L347.6,235.3z M274.5,239.6l5.9,5.8l0-4.5l-5.9-6.4L274.5,239.6z M311.1,239.1l3.8,0.8
				l-0.2-4.9l-4.2-1L311.1,239.1z M216.3,237l6.9,0.9l2.6-3l-6.1-0.9L216.3,237z M267.6,240.5l7.3,5.4l-1.2-5.8l-7.5-6.2
				L267.6,240.5z M339.3,234.4l1.1,1.8l3.1-0.5l-0.8-1.8L339.3,234.4z M296.3,234.4l1.9,5.6l3.1-0.8l-1.6-5.5L296.3,234.4z
				 M300.6,233.5l1.5,5.5l3.5-0.2l-1.1-5.4L300.6,233.5z M306.5,238.7l3.7,0.3l-0.7-5.2l-4-0.5L306.5,238.7z M321.5,236.5l4.1,0.6
				l-0.9-3.7l-4.5-0.7L321.5,236.5z M282.6,235.7l4.2,6.2l1.7-2.9l-4-6.4L282.6,235.7z M205.1,232.1l-1.7,2.3l5.5-0.4l1.1-2.2
				L205.1,232.1z M350.1,231.6l0.6,0.9l1.5-0.9l-0.4-0.9L350.1,231.6z M327.4,233.7l4.1,0.2l-1-3l-4.5-0.3L327.4,233.7z
				 M191.1,231.1l-0.4,1.1l2.9-0.7l0.2-1.1L191.1,231.1z M315.7,234.6l4.2,0.9l-0.7-4.6l-4.7-1.1L315.7,234.6z M285.1,232l3.8,6.5
				l2.4-2.2l-3.5-6.6L285.1,232z M332.9,229.6l1.4,2.3l3.6-0.4l-1-2.3L332.9,229.6z M341.1,230l1,1.5l2.7-0.8l-0.7-1.5L341.1,230z
				 M274.7,233.4l5.9,6.5l1-3.9l-5.7-6.9L274.7,233.4z M288.6,229.2l3.3,6.6l3-1.5l-2.9-6.6L288.6,229.2z M310.1,233.3l4.2,1
				l-0.6-5.6l-4.7-1.3L310.1,233.3z M352.7,228.1l0.4,0.5l0.8-0.8l-0.3-0.6L352.7,228.1z M240.5,233.6l7.3-0.7l4,6.2l8,1.3l-4-6.4
				l-8.8-2.3l0.5,0.7l-4.6-5.1l-8.4-0.1L240.5,233.6z M321.2,230.7l4.4,0.5l-1.1-3.9l-4.9-0.7L321.2,230.7z M292.9,227.4l2.8,6.5
				l3.5-0.8l-2.3-6.4L292.9,227.4z M266.2,232.4l7.5,6.5l0-5.1l-7.5-7.2L266.2,232.4z M304.9,232.7l4.1,0.5l-1.2-5.9l-4.6-0.7
				L304.9,232.7z M300.1,232.9l3.8-0.1l-1.7-6.2l-4.3,0L300.1,232.9z M257.8,233.8l8.9,5.9l-1.4-6.6l-9.2-6.9L257.8,233.8z M326,225
				l1.6,3l4.2-0.1l-1.1-2.9L326,225z M276.4,228.1l5.6,7.1l1.9-3.1l-5.2-7.3L276.4,228.1z M343,225.7l0.9,1.1l2.1-1.1l-0.6-1.2
				L343,225.7z M333.9,224.7l1.3,1.9l3.4-0.8l-0.9-2L333.9,224.7z M314.8,228.4l4.6,1l-1-5l-5.2-1.2L314.8,228.4z M279.3,224
				l5.1,7.4l2.7-2.3l-4.6-7.5L279.3,224z M220.7,222.7l7.2,4.8l6.1-2.1l-6-4.3L220.7,222.7z M266.6,225.4l7.4,7.3l1.2-4.3l-7.2-7.9
				L266.6,225.4z M320.8,224.5l4.7,0.3l-1.3-3.8l-5.3-0.4L320.8,224.5z M345.2,221.7l0.6,0.8l1.3-1.1l-0.5-0.9L345.2,221.7z
				 M308.5,226.8l4.7,1.3l-1-6.2l-5.3-1.7L308.5,226.8z M283.4,221l4.4,7.5l3.4-1.5l-3.9-7.5L283.4,221z M246.9,227.5l9.7,4.2
				l-2.3-7l-10.2-5.3L246.9,227.5z M302.6,225.9l4.6,0.7l-1.7-6.6l-5.2-1.1L302.6,225.9z M326.2,219.4l1.7,2.6l4.1-0.6l-1.2-2.6
				L326.2,219.4z M288.4,219.3l3.8,7.4l3.9-0.7l-3.2-7.3L288.4,219.3z M297.2,225.8l4.3,0.1l-2.4-7l-5-0.3L297.2,225.8z
				 M335.2,219.8l1.2,1.5l2.8-1.1l-0.9-1.6L335.2,219.8z M256.2,224.6l9.1,7.1l0-5.9l-9.2-8L256.2,224.6z M347.5,217.9l0.3,0.4
				l0.6-0.8l-0.3-0.4L347.5,217.9z M313.6,221.6l5.1,0.9l-1.4-5l-5.8-1.2L313.6,221.6z M268.6,219.5l7,8l2.2-3.4l-6.6-8.3
				L268.6,219.5z M206.3,218.1l7.4,2.9l4.3-2.7l-6.4-2.7L206.3,218.1z M318.1,214.3l2.2,3.6l4.8-0.1l-1.5-3.5L318.1,214.3z
				 M336.8,215.2l1,1.1l2.1-1.3l-0.8-1.2L336.8,215.2z M234.9,220.7l9.5,1.7l-3.7-6.7l-10.3-2.7L234.9,220.7z M326.7,213.9l1.7,2.1
				l3.7-1l-1.2-2.2L326.7,213.9z M272.1,215l6.4,8.3l3.2-2.5l-5.8-8.5L272.1,215z M306.3,219.4l5.3,1.6l-1.4-6.6l-6.1-2.1
				L306.3,219.4z M191.7,213.5l6.6,1.2l2.4-2.4l-5.8-1.2L191.7,213.5z M256.6,216.5l9,8.1l1.4-4.9l-8.7-8.7L256.6,216.5z
				 M299.6,218.1l5.3,1.1l-2.2-7.2l-6-1.5L299.6,218.1z M276.9,211.9l5.6,8.4l4-1.5l-4.9-8.4L276.9,211.9z M282.8,210.2l4.7,8.3
				l4.6-0.5l-4-8.1L282.8,210.2z M293.3,217.8l5,0.3l-3.1-7.7l-5.8-0.6L293.3,217.8z M338.5,210.8l0.7,0.7l1.2-1.3l-0.6-0.8
				L338.5,210.8z M312.1,214.3l5.4,0.6l-1.8-4.8l-6.2-0.8L312.1,214.3z M244.3,216.2l10.7,7.5l-0.1-6.7l-10.8-8.4L244.3,216.2z
				 M177.5,209.2l4.4,0.1l0.8-1.5l-4-0.1L177.5,209.2z M317.4,208.1l2.3,3.1l4.7-0.6l-1.6-3.1L317.4,208.1z M327.4,208.6l1.5,1.6
				l3-1.4l-1.1-1.7L327.4,208.6z M221.7,213.2l8.3-0.4l-5-5.8l-9.3-0.4L221.7,213.2z M259,210l8.5,8.8l2.7-3.8l-8-9.2L259,210z
				 M303.9,211.4l5.9,1.5l-2-6.4l-6.8-1.9L303.9,211.4z M263.2,205l7.7,9.2l3.8-2.6l-7-9.3L263.2,205z M310.5,206.7l5.6,0.1
				l-2.1-4.2l-6.4-0.2L310.5,206.7z M328.4,203.6l1.2,1.1l2.1-1.6l-0.9-1.2L328.4,203.6z M295.9,209.6l6.1,1.5l-2.6-7.7l-7-2.1
				L295.9,209.6z M317,202.1l2.1,2.4l4.2-1.2l-1.6-2.5L317,202.1z M244.8,206.9l10.6,8.9l1.7-5.5l-10.3-9.6L244.8,206.9z
				 M231.9,208.5l11.1,4.6l-1.5-7l-11.4-5.7L231.9,208.5z M269,201.8l6.8,9.3l4.7-1.4l-5.9-9.2L269,201.8z M276,200.2l5.7,9.1
				l5.4-0.3l-4.8-8.8L276,200.2z M288.6,208.9l5.8,0.7l-3.7-8.3l-6.8-1.1L288.6,208.9z M200.2,200.1l6.9,5l6.4-1.8l-5.9-4.5
				L200.2,200.1z M329.5,199l0.7,0.6l1.1-1.4l-0.6-0.7L329.5,199z M301.1,203l6.4,1l-2.6-5.9l-7.3-1.4L301.1,203z M305.9,195.6
				l3,3.6l5.4-0.6l-2.2-3.5L305.9,195.6z M247.7,199.5l10,9.6l3.2-4.2l-9.4-10L247.7,199.5z M317,196.4l1.8,1.7l3.3-1.7l-1.4-1.9
				L317,196.4z M218.5,200l10.3,1.9l-3-6.7l-10.9-2.9L218.5,200z M291.6,200.4l7,1.9l-3.1-7.9l-8.1-2.5L291.6,200.4z M184.5,193.6
				l6.9,3.1l4.1-2.2l-6-2.9L184.5,193.6z M252.9,194.2l9.1,10l4.6-2.7l-8.2-10.1L252.9,194.2z M231.8,197.6l11.8,7.6l1.2-6.2
				l-11.5-8.5L231.8,197.6z M282.9,199.2l6.9,1.1l-4.2-8.7l-8-1.7L282.9,199.2z M259.8,190.9l7.9,10l5.6-1.3l-6.9-9.9L259.8,190.9z
				 M274.9,199.3h6.4l-5.5-9.4l-7.5-0.4L274.9,199.3z M298.1,194.5l6.6,0.3l-2.9-5l-7.5-0.6L298.1,194.5z M317.3,191.1l1.4,1.1
				l2.3-1.8l-1.1-1.3L317.3,191.1z M304.5,189.1l2.8,2.7l4.8-1.3l-2.1-2.7L304.5,189.1z M169.2,187.4l5.4,1.4l1.9-1.8l-4.9-1.4
				L169.2,187.4z M317.8,186.3l0.8,0.6l1.1-1.7l-0.7-0.7L317.8,186.3z M204,190.7l8.5-0.2l-4.3-5.8l-9.2-0.6L204,190.7z M287.2,191
				l7.5,1.2l-3.7-6.9l-8.7-1.7L287.2,191z M234.8,188.4l11.4,10.3l3.9-4.6l-10.6-10.7L234.8,188.4z M291.2,182l3.9,4.1l6.3-0.5l-3-4
				L291.2,182z M303.6,183.1l2.3,1.9l3.8-1.8l-1.8-2L303.6,183.1z M154.6,181.9l2.8,0.3l0.5-0.9l-2.5-0.3L154.6,181.9z M218.5,188.4
				l11.6,4.6l-0.2-6.6l-11.6-5.5L218.5,188.4z M241.1,182.6l10.3,10.6l5.5-2.8l-9.2-10.7L241.1,182.6z M276.5,188.9l8.1,1.8
				l-4.6-8.9l-9.4-2.4L276.5,188.9z M249.5,179.3l9,10.6l6.8-1.1l-7.7-10.3L249.5,179.3z M267,188.5l7.6,0.4l-6.1-9.7l-8.9-1
				L267,188.5z M282.6,181.5l7.6,0.3l-4.1-5.6l-8.7-0.7L282.6,181.5z M303.1,177.7l1.7,1.1l2.5-2l-1.4-1.3L303.1,177.7z
				 M182.6,175.9l5.9,5l6-1.4l-5.2-4.5L182.6,175.9z M288.6,175.2l3.5,3l5.6-1.2l-2.8-3L288.6,175.2z M222,178.9l11.9,7.1l2.8-5.4
				l-11.3-7.7L222,178.9z M204.5,178.4l10.1,1.9l-1.8-6.3l-10.4-2.7L204.5,178.4z M303.1,173l1,0.6l1-2l-0.8-0.8L303.1,173z
				 M270.2,178.4l8.3,0.7l-5.3-7.3l-9.7-1.2L270.2,178.4z M228.8,172l11.2,9l5.5-3.5l-10.1-9.2L228.8,172z M258.6,177.1l8.3,0.1
				l-6.8-8.8l-9.8-0.6L258.6,177.1z M302.9,168.9l0.5,0.4l-0.1-1.2l-0.5-0.4L302.9,168.9z M272.9,167.9l5,4.4l7.1-0.6l-4-4.3
				L272.9,167.9z M286.7,169l2.8,1.9l4.4-1.8l-2.3-2L286.7,169z M238.5,168.3l9.9,9.7l7.4-1.4l-8.5-9.5L238.5,168.3z M166.8,168.1
				l5.6,3.2l3.4-1.6l-5-2.9L166.8,168.1z M208.8,168.7l11,4.1l1.3-5.9l-10.7-4.8L208.8,168.7z M257,162.1l6.7,5.9l8.1-0.4l-5.4-5.6
				L257,162.1z M190,167.9l7.8,0l-3.2-5.6l-8.3-0.7L190,167.9z M285.5,163.7l1.9,1.1l2.7-2.3l-1.6-1.3L285.5,163.7z M152,161.1
				l3.9,1.5l1.3-1.2l-3.5-1.4L152,161.1z M269.1,160.9l4.4,3l6.2-1.3l-3.5-3L269.1,160.9z M241.8,158.8l8.4,6.9l8-1l-7-6.7
				L241.8,158.8z M216.8,162l10.9,6l4.4-4.4l-10.1-6.4L216.8,162z M284.8,159l1.2,0.7l0.7-2l-1.1-0.9L284.8,159z M228.1,158.6l10,7
				l6.8-2.6l-8.7-7L228.1,158.6z M283.9,155.3l0.7,0.4l-0.2-1.1l-0.7-0.5L283.9,155.3z M251.1,154.1l6.1,4.1l7.3-1.2l-5-4
				L251.1,154.1z M266.3,154.8l3.2,1.7l4.7-2.1l-2.6-1.9L266.3,154.8z M170.7,152.6l4.4,4.8l5.1-0.9l-3.9-4.3L170.7,152.6z
				 M195.6,158.2l9.1,1.7l-0.2-5.7l-9.1-2.4L195.6,158.2z M233.8,149.9l7.7,4.7l7.2-2l-6.5-4.7L233.8,149.9z M264.5,149.3l2.1,1.2
				l2.1-2.3l-1.8-1.3L264.5,149.3z M205.1,151.8l9.6,3.4l3-4.9l-9-3.9L205.1,151.8z M218.1,149.1l9,4.5l5.7-3.4l-8-4.7L218.1,149.1z
				 M246.3,147.1l4.8,2.4l6.1-2l-3.9-2.5L246.3,147.1z M156.3,144.6l4,3.1l2.5-1.1l-3.6-2.9L156.3,144.6z M262.7,144.8l1.4,0.8
				l0.5-1.6l-1.3-0.8L262.7,144.8z M182.5,147.5l6.6,0.2l-1.7-5l-6.8-0.8L182.5,147.5z M226.7,141.8l6.4,2.8l6.1-2.6l-5.4-2.9
				L226.7,141.8z M243,140.9l3.2,1.5l3.4-2.6l-2.7-1.6L243,140.9z M143.5,138.2l2.4,1.3l1-0.8l-2.2-1.2L143.5,138.2z M194,141.7
				l7.5,1.5l1.4-4.7l-7.1-2L194,141.7z M209,139.8l7.4,2.5l4.3-3.7l-6.6-2.8L209,139.8z M239.9,135.4l2.3,1l1.4-1.8l-2.1-1.1
				L239.9,135.4z M167.2,133.6l2.4,4l4.3-0.5l-2.2-3.6L167.2,133.6z M221.5,134.7l4.2,1.5l3.5-3.3l-3.7-1.7L221.5,134.7z
				 M237.4,131.7l1.5,0.6l0.2-0.9l-1.4-0.6L237.4,131.7z M183.5,132.3l5.2,0.4l0.1-4l-5.1-0.8L183.5,132.3z M200.9,131.3l5.4,1.3
				l2.5-3.4l-4.9-1.5L200.9,131.3z M155.5,126.7l2.1,2.4l2.1-0.7l-2-2.3L155.5,126.7z M216.6,128.2l3,1l1.5-2.3l-2.8-1.1
				L216.6,128.2z M212.6,123.6l1.9,0.6l0.3-1.2l-1.8-0.7L212.6,123.6z M145.9,122.1l1.5,0.9l0.9-0.4l-1.4-0.8L145.9,122.1z
				 M174.1,124.2l3.1,0l-0.8-2.8l-3.2-0.2L174.1,124.2z M194.3,124.2l3.4,0.6l0.5-2.8l-3.2-0.8L194.3,124.2z M188.4,118.8l2.1,0.3
				l-0.3-1.5l-2-0.4L188.4,118.8z M165,116.7l1.2,1.5l1.7-0.1l-1.1-1.4L165,116.7z"/>
		</defs>
		<clipPath id="SVGID_17_">
			<use xlink:href="#SVGID_16_"  style="overflow:visible;"/>
		</clipPath>
		
			<linearGradient id="SVGID_18_" gradientUnits="userSpaceOnUse" x1="46.2085" y1="553.9807" x2="47.8422" y2="553.9807" gradientTransform="matrix(118.756 141.528 -141.528 118.756 73077.0938 -72222.5625)">
			<stop  offset="0" style="stop-color:#B64D9C"/>
			<stop  offset="0.2941" style="stop-color:#B64D9C"/>
			<stop  offset="0.3248" style="stop-color:#AA56A0"/>
			<stop  offset="0.3799" style="stop-color:#8B70A9"/>
			<stop  offset="0.4525" style="stop-color:#5998B9"/>
			<stop  offset="0.5074" style="stop-color:#2FBAC6"/>
			<stop  offset="0.674" style="stop-color:#1493B7"/>
			<stop  offset="0.788" style="stop-color:#2F82B4"/>
			<stop  offset="0.9207" style="stop-color:#4972B0"/>
			<stop  offset="1" style="stop-color:#536CAF"/>
		</linearGradient>
		<polygon class="st5" points="36.3,206.6 240.9,450.4 486.3,244.4 281.8,0.7 		"/>
	</g>
	<g>
		<defs>
			<rect id="SVGID_19_" x="46.7" y="116.7" width="418.6" height="221.9"/>
		</defs>
		<clipPath id="SVGID_20_">
			<use xlink:href="#SVGID_19_"  style="overflow:visible;"/>
		</clipPath>
		<path class="st6" d="M374,319.7c0-0.4-0.1-0.8-0.2-1.2c-0.2-0.4-0.4-0.7-0.6-0.9c-0.3-0.3-0.6-0.5-1-0.6c-0.4-0.2-0.8-0.2-1.2-0.2
			c-0.4,0-0.9,0.1-1.2,0.2c-0.4,0.1-0.7,0.4-1,0.6c-0.3,0.3-0.5,0.6-0.6,0.9c-0.2,0.4-0.2,0.7-0.2,1.2c0,0.4,0.1,0.8,0.2,1.2
			c0.1,0.3,0.4,0.7,0.6,0.9c0.3,0.3,0.6,0.5,1,0.6c0.4,0.1,0.8,0.2,1.2,0.2c0.4,0,0.9-0.1,1.2-0.2c0.4-0.2,0.7-0.4,1-0.6
			c0.3-0.3,0.5-0.6,0.6-0.9C373.9,320.5,374,320.2,374,319.7 M372.8,320.6c-0.1,0.2-0.2,0.4-0.4,0.6c-0.2,0.2-0.4,0.3-0.6,0.4
			c-0.2,0.1-0.5,0.1-0.8,0.1c-0.3,0-0.5,0-0.8-0.1c-0.2-0.1-0.4-0.2-0.6-0.4c-0.2-0.2-0.3-0.4-0.4-0.6c-0.1-0.2-0.1-0.5-0.1-0.8
			s0-0.6,0.1-0.8c0.1-0.2,0.2-0.4,0.4-0.6c0.2-0.2,0.4-0.3,0.6-0.4c0.2-0.1,0.5-0.1,0.8-0.1c0.3,0,0.5,0,0.8,0.1
			c0.2,0.1,0.4,0.2,0.6,0.4c0.2,0.2,0.3,0.4,0.4,0.6c0.1,0.2,0.1,0.5,0.1,0.8S372.9,320.3,372.8,320.6 M379.5,320.4v2.2h1v-2.5
			c0-0.3,0-0.6-0.1-0.8c-0.1-0.2-0.2-0.4-0.4-0.5c-0.2-0.1-0.3-0.2-0.6-0.2c-0.2,0-0.5-0.1-0.7-0.1c-0.2,0-0.4,0-0.7,0.1
			c-0.2,0.1-0.5,0.1-0.7,0.2c-0.1-0.1-0.3-0.2-0.5-0.2c-0.2,0-0.4-0.1-0.6-0.1c-0.2,0-0.5,0-0.8,0.1c-0.3,0-0.6,0.1-0.9,0.2v3.8h1
			v-3l0.3-0.1c0.1,0,0.2,0,0.3,0c0.1,0,0.3,0,0.4,0c0.1,0,0.2,0.1,0.3,0.1c0.1,0.1,0.1,0.2,0.1,0.3c0,0.1,0,0.3,0,0.4v2.2h1v-2.2
			c0-0.1,0-0.1,0-0.2c0-0.1,0-0.1,0-0.2c0-0.1,0-0.1,0-0.2c0-0.1,0-0.1,0-0.1c0.1-0.1,0.3-0.1,0.4-0.1c0.1,0,0.3,0,0.4,0
			c0.3,0,0.5,0.1,0.6,0.2C379.5,319.8,379.5,320,379.5,320.4 M383,322.7c0.3,0,0.6,0,0.9-0.1c0.3-0.1,0.6-0.1,0.9-0.2v-2.3
			c0-0.3,0-0.5-0.1-0.7c-0.1-0.2-0.2-0.4-0.4-0.5c-0.2-0.1-0.4-0.2-0.6-0.3c-0.2-0.1-0.5-0.1-0.7-0.1c-0.3,0-0.6,0-0.8,0.1
			c-0.3,0.1-0.5,0.1-0.6,0.2l-0.1,1c0.1,0,0.2-0.1,0.3-0.1c0.1,0,0.2-0.1,0.4-0.1c0.1,0,0.3-0.1,0.4-0.1c0.1,0,0.2,0,0.3,0
			c0.3,0,0.5,0,0.7,0.1c0.2,0.1,0.3,0.2,0.3,0.5v0.1c-0.2,0-0.3,0-0.4,0c-0.1,0-0.3,0-0.4,0c-0.3,0-0.5,0-0.8,0.1
			c-0.2,0.1-0.4,0.1-0.6,0.2c-0.2,0.1-0.3,0.3-0.4,0.4c-0.1,0.2-0.1,0.4-0.1,0.6c0,0.2,0.1,0.4,0.2,0.6c0.1,0.2,0.2,0.3,0.4,0.4
			c0.2,0.1,0.4,0.2,0.6,0.2C382.5,322.6,382.7,322.7,383,322.7 M383.7,320.9v0.8c-0.1,0-0.2,0.1-0.4,0.1c-0.1,0-0.3,0-0.4,0
			c-0.2,0-0.5,0-0.6-0.1c-0.2-0.1-0.3-0.2-0.3-0.4c0-0.1,0-0.2,0.1-0.2c0.1-0.1,0.1-0.1,0.2-0.2c0.1,0,0.2-0.1,0.3-0.1
			c0.1,0,0.2,0,0.4,0c0.1,0,0.2,0,0.3,0C383.5,320.8,383.7,320.9,383.7,320.9 M385.5,318.7v3.9h1v-3c0.1,0,0.3,0,0.4-0.1
			c0.1,0,0.3,0,0.4,0c0.3,0,0.5,0.1,0.7,0.2c0.2,0.1,0.2,0.4,0.2,0.7v2.2h1v-2.5c0-0.3,0-0.6-0.2-0.8c-0.1-0.2-0.2-0.4-0.4-0.5
			c-0.2-0.1-0.4-0.2-0.6-0.2c-0.2,0-0.5-0.1-0.7-0.1c-0.1,0-0.2,0-0.4,0l-0.5,0c-0.2,0-0.3,0-0.5,0.1
			C385.8,318.7,385.7,318.7,385.5,318.7 M389.5,316.9l2,5.6h1.4l2-5.6h-1.2l-1.5,4.6l-1.5-4.6H389.5z M395.5,318.4
			c0.2,0,0.3,0,0.4-0.1c0.1-0.1,0.2-0.2,0.2-0.4c0-0.2-0.1-0.3-0.2-0.4c-0.1-0.1-0.3-0.1-0.4-0.1c-0.2,0-0.3,0-0.4,0.1
			c-0.1,0.1-0.2,0.2-0.2,0.4c0,0.2,0.1,0.3,0.2,0.4C395.2,318.4,395.3,318.4,395.5,318.4 M394.9,322.6h1v-3.9h-1V322.6z
			 M398.3,321.7c-0.3,0-0.5,0-0.8-0.1c-0.3-0.1-0.5-0.2-0.7-0.3l-0.4,0.9c0.1,0.1,0.2,0.1,0.4,0.2c0.1,0.1,0.3,0.1,0.5,0.1
			c0.2,0,0.3,0.1,0.5,0.1c0.2,0,0.3,0,0.5,0c0.3,0,0.6,0,0.8-0.1c0.2-0.1,0.4-0.1,0.6-0.3c0.2-0.1,0.3-0.2,0.3-0.4
			c0.1-0.1,0.1-0.3,0.1-0.5c0-0.4-0.1-0.6-0.4-0.8c-0.2-0.2-0.6-0.4-1.2-0.5l-0.3-0.1c-0.3,0-0.4-0.1-0.5-0.2
			c-0.1-0.1-0.1-0.1-0.1-0.2c0-0.2,0.2-0.3,0.6-0.3c0.1,0,0.2,0,0.4,0c0.1,0,0.3,0,0.4,0.1c0.1,0,0.2,0.1,0.4,0.1
			c0.1,0,0.2,0.1,0.3,0.1l0.4-0.9c-0.2-0.1-0.5-0.2-0.8-0.3c-0.3-0.1-0.6-0.1-0.9-0.1c-0.5,0-0.9,0.1-1.2,0.3
			c-0.3,0.2-0.5,0.5-0.5,0.9c0,0.3,0.1,0.6,0.4,0.8c0.3,0.2,0.6,0.3,1.1,0.4l0.3,0.1c0.3,0,0.4,0.1,0.5,0.2c0.1,0.1,0.1,0.1,0.1,0.2
			c0,0.1-0.1,0.2-0.2,0.2C398.7,321.7,398.5,321.7,398.3,321.7 M401.2,318.4c0.2,0,0.3,0,0.4-0.1c0.1-0.1,0.2-0.2,0.2-0.4
			c0-0.2-0.1-0.3-0.2-0.4c-0.1-0.1-0.3-0.1-0.4-0.1c-0.2,0-0.3,0-0.4,0.1c-0.1,0.1-0.2,0.2-0.2,0.4c0,0.2,0.1,0.3,0.2,0.4
			C400.9,318.4,401.1,318.4,401.2,318.4 M400.7,322.6h1v-3.9h-1V322.6z M405.3,322.5c0.3-0.1,0.5-0.3,0.7-0.4
			c0.2-0.2,0.4-0.4,0.5-0.7c0.1-0.3,0.2-0.5,0.2-0.8c0-0.3-0.1-0.6-0.2-0.8c-0.1-0.3-0.3-0.5-0.5-0.7c-0.2-0.2-0.4-0.3-0.7-0.4
			c-0.3-0.1-0.6-0.2-0.9-0.2c-0.3,0-0.6,0.1-0.9,0.2c-0.3,0.1-0.5,0.3-0.7,0.4c-0.2,0.2-0.4,0.4-0.5,0.7c-0.1,0.2-0.2,0.5-0.2,0.8
			c0,0.3,0.1,0.6,0.2,0.8c0.1,0.3,0.3,0.5,0.5,0.7c0.2,0.2,0.4,0.3,0.7,0.4c0.3,0.1,0.6,0.2,0.9,0.2
			C404.7,322.7,405,322.6,405.3,322.5 M403.9,321.6c-0.1-0.1-0.3-0.1-0.4-0.2c-0.1-0.1-0.2-0.2-0.2-0.4c-0.1-0.1-0.1-0.3-0.1-0.4
			c0-0.2,0-0.3,0.1-0.4c0.1-0.1,0.1-0.3,0.2-0.4c0.1-0.1,0.2-0.2,0.4-0.2c0.1-0.1,0.3-0.1,0.5-0.1c0.2,0,0.3,0,0.5,0.1
			c0.1,0.1,0.3,0.1,0.4,0.2c0.1,0.1,0.2,0.2,0.2,0.4c0.1,0.1,0.1,0.3,0.1,0.4c0,0.2,0,0.3-0.1,0.4c-0.1,0.1-0.1,0.3-0.2,0.4
			c-0.1,0.1-0.2,0.2-0.4,0.2c-0.1,0.1-0.3,0.1-0.5,0.1C404.2,321.7,404.1,321.7,403.9,321.6 M407.1,318.7v3.9h1v-3
			c0.1,0,0.3,0,0.4-0.1c0.1,0,0.2,0,0.4,0c0.3,0,0.5,0.1,0.7,0.2c0.2,0.1,0.2,0.4,0.2,0.7v2.2h1v-2.5c0-0.3,0-0.6-0.1-0.8
			c-0.1-0.2-0.2-0.4-0.4-0.5c-0.2-0.1-0.4-0.2-0.6-0.2c-0.2,0-0.5-0.1-0.7-0.1c-0.1,0-0.2,0-0.4,0l-0.5,0c-0.2,0-0.3,0-0.5,0.1
			C407.4,318.7,407.3,318.7,407.1,318.7 M393.5,281.3L393.5,281.3L393.5,281.3L393.5,281.3z M394.5,281c-0.3,0.2-0.6,0.3-1,0.3
			l0,0.8c0.4,0,0.9-0.1,1.3-0.3c0.4-0.2,0.8-0.4,1.2-0.8c0.3-0.3,0.6-0.7,0.8-1.1c0.2-0.4,0.3-0.8,0.3-1.2c0-0.6-0.2-1.1-0.5-1.3
			c-0.3-0.3-0.7-0.4-1.2-0.4c-0.5,0-0.8,0.1-1.2,0.4c-0.3,0.2-0.5,0.6-0.5,1.2c0,0.3,0.1,0.5,0.2,0.7c0.1,0.2,0.2,0.4,0.4,0.5
			c0.2,0.1,0.4,0.3,0.5,0.4c0.2,0.1,0.4,0.2,0.5,0.2C395.1,280.5,394.8,280.8,394.5,281 M394.7,278.7L394.7,278.7
			c0-0.3,0.1-0.5,0.2-0.6c0.1-0.1,0.3-0.2,0.5-0.2c0.2,0,0.4,0.1,0.5,0.2c0.1,0.2,0.2,0.4,0.2,0.7c0,0.1,0,0.3-0.1,0.4
			c-0.1,0.1-0.1,0.3-0.2,0.5c-0.3,0-0.6-0.2-0.8-0.3C394.8,279.1,394.7,278.9,394.7,278.7 M432.6,295.8l0.2,0l9.3,0v-13.7h-1.8v12
			h-8c-0.4,0-0.7-0.1-1.1-0.3c-0.4-0.2-0.7-0.5-0.9-0.9c-0.3-0.4-0.5-0.8-0.6-1.3c-0.1-0.5-0.2-1.1-0.2-1.7v-7.9h-6
			c-1.1,0-2.1,0.2-2.9,0.6c-0.8,0.4-1.4,0.9-1.9,1.5c-0.5,0.6-0.8,1.4-1,2.1c-0.2,0.8-0.3,1.6-0.3,2.3c0,1,0.2,1.9,0.5,2.6
			c0.3,0.7,0.8,1.4,1.3,1.9c0.5,0.5,1.2,0.9,1.9,1.1c0.7,0.3,1.4,0.4,2.2,0.4c0.5,0,1-0.1,1.5-0.2c0.5-0.1,0.9-0.3,1.3-0.6
			c0.4-0.2,0.8-0.5,1.1-0.8c0.3-0.3,0.5-0.6,0.8-0.9c0.3,1.1,0.8,2,1.6,2.6C430.6,295.4,431.5,295.8,432.6,295.8 M423.4,293.1
			L423.4,293.1c-0.4,0-0.9-0.1-1.4-0.3c-0.5-0.2-0.9-0.4-1.3-0.8c-0.4-0.3-0.7-0.8-1-1.3c-0.2-0.5-0.4-1.2-0.4-2
			c0-0.8,0.1-1.5,0.3-2.1c0.2-0.6,0.5-1.1,0.8-1.6c0.4-0.4,0.8-0.7,1.3-1c0.5-0.2,1.1-0.3,1.6-0.3h4.2v5.1c0,0.7-0.1,1.4-0.4,1.9
			c-0.3,0.5-0.6,1-1,1.3c-0.4,0.3-0.8,0.6-1.4,0.8C424.4,293,423.9,293.1,423.4,293.1 M446.1,279.8l-0.9,0v0.6h3.6v-0.6h-1.5
			c-0.3,0-0.5-0.1-0.7-0.3c-0.2-0.2-0.3-0.5-0.3-0.9s0.1-0.6,0.3-0.8c0.2-0.2,0.4-0.3,0.7-0.3c0.3,0,0.5,0.1,0.7,0.3
			c0.2,0.2,0.3,0.4,0.3,0.7h0.6c0-0.5-0.2-0.9-0.5-1.1c-0.3-0.2-0.7-0.4-1.1-0.4c-0.5,0-0.9,0.1-1.2,0.5c-0.3,0.3-0.4,0.7-0.4,1.1
			c0,0.3,0,0.5,0.2,0.7C445.9,279.5,446,279.6,446.1,279.8L446.1,279.8z M449.7,302.7L449.7,302.7c1.4-0.1,2.6-0.3,3.6-0.7
			c1-0.4,1.9-1.1,2.5-2.1c0.6-1,1.1-2.2,1.4-3.8c0.3-1.6,0.4-3.5,0.4-5.9c0-1.4-0.1-2.6-0.3-3.6c-0.2-1.1-0.5-2-1-2.7
			c-0.5-0.7-1.1-1.3-1.9-1.7c-0.8-0.4-1.8-0.6-3-0.6c-1.2,0-2.2,0.2-3.1,0.6c-0.8,0.4-1.4,0.9-1.9,1.6c-0.5,0.7-0.8,1.5-1,2.4
			c-0.2,0.9-0.3,1.8-0.3,2.8c0,0.9,0.1,1.8,0.4,2.6c0.3,0.8,0.7,1.5,1.2,2.1c0.5,0.6,1.2,1.1,1.9,1.4c0.8,0.3,1.7,0.5,2.8,0.5h3.9
			c-0.2,1-0.4,1.8-0.7,2.5c-0.3,0.7-0.7,1.2-1.2,1.6c-0.5,0.4-1.1,0.7-1.8,0.8c-0.7,0.1-1.5,0.2-2.4,0.2c-0.4,0-0.8,0-1.2-0.1
			c-0.4-0.1-0.7-0.2-1-0.3v1.8c0.2,0.1,0.4,0.2,0.7,0.3c0.2,0.1,0.5,0.1,0.8,0.1C448.9,302.6,449.3,302.7,449.7,302.7 M447.2,289.2
			L447.2,289.2c0.1-0.9,0.2-1.6,0.3-2.3c0.1-0.7,0.4-1.3,0.7-1.8c0.3-0.5,0.8-0.9,1.3-1.2c0.5-0.3,1.2-0.4,2-0.4
			c1.6,0,2.7,0.5,3.3,1.7c0.6,1.1,1,2.8,1,5.1c0,0.8,0,1.5-0.1,2.2c0,0.7-0.1,1.3-0.1,1.9h-4.1c-1.5,0-2.6-0.4-3.3-1.3
			C447.5,292.1,447.2,290.8,447.2,289.2 M460.8,300.9L460.8,300.9c-0.3-0.1-0.6-0.1-0.9-0.2c-0.3-0.1-0.6-0.2-0.9-0.3v1.7
			c0.1,0.1,0.3,0.2,0.5,0.3c0.2,0.1,0.4,0.1,0.6,0.2c0.3,0.1,0.6,0.1,1,0.1c0.8,0,1.4-0.1,2-0.5c0.5-0.3,1-0.8,1.3-1.4
			c0.3-0.6,0.6-1.3,0.7-2.2c0.1-0.8,0.2-1.8,0.2-2.8v-13.8h-1.8v13.8c0,0.9-0.1,1.8-0.2,2.4c-0.1,0.6-0.2,1.2-0.4,1.6
			c-0.2,0.4-0.5,0.7-0.8,0.9C461.7,300.9,461.3,300.9,460.8,300.9 M330.8,284.4l-2.4-2.3l-2.5,2.4l2.4,2.3L330.8,284.4z M336.5,287
			v3.2c0,1.7-0.2,3.1-0.6,4.3c-0.4,1.2-0.9,2.2-1.6,3c-0.7,0.8-1.6,1.4-2.6,1.7c-1,0.4-2.1,0.5-3.3,0.5c-1.2,0-2.4-0.2-3.3-0.5
			c-1-0.4-1.9-0.9-2.6-1.7c-0.7-0.8-1.3-1.8-1.6-3c-0.4-1.2-0.6-2.6-0.6-4.3V287h-3.4v3.6c0,1.4,0.2,2.9,0.6,4.3
			c0.4,1.4,1,2.7,1.9,3.9c0.9,1.2,2.1,2.1,3.5,2.8c1.5,0.7,3.3,1,5.5,1l0,0l0,0c2.2,0,4.1-0.3,5.5-1c1.5-0.7,2.6-1.6,3.5-2.8
			c0.9-1.1,1.5-2.4,1.9-3.9c0.4-1.4,0.6-2.9,0.6-4.3V287H336.5z M375.2,296.6c1.5,0,2.8-0.3,3.9-0.8c1.1-0.5,2-1.4,2.6-2.5
			c0.3,0.8,0.8,1.4,1.5,1.8c0.7,0.4,1.4,0.6,2.2,0.6l25.4,0v-3h-6.2c-1.2,0-2.2-0.4-2.8-1.2c-0.6-0.8-1-1.9-1-3.2
			c0-1.2,0.3-2.2,1-2.8c0.6-0.6,1.5-0.9,2.5-0.9c0.4,0,0.7,0.1,1.1,0.2c0.4,0.1,0.7,0.3,0.9,0.6c0.3,0.3,0.5,0.6,0.7,0.9
			c0.1,0.2,0.2,0.4,0.3,0.6h3.2c-0.1-0.7-0.3-1.3-0.5-1.9c-0.3-0.7-0.7-1.3-1.2-1.8c-0.5-0.5-1.1-0.9-1.9-1.2
			c-0.7-0.3-1.6-0.4-2.7-0.4c-1,0-2,0.1-2.9,0.5c-0.9,0.3-1.6,0.7-2.2,1.3c-0.6,0.6-1.1,1.3-1.4,2.1c-0.3,0.8-0.5,1.8-0.5,2.8
			c0,0.4,0.1,0.9,0.2,1.3c0.1,0.4,0.3,0.8,0.4,1.2c0.2,0.4,0.4,0.8,0.6,1.1c0.2,0.3,0.4,0.6,0.6,0.8l0.1,0.1l-13.7,0
			c-0.4,0-0.7-0.1-1.1-0.2c-0.3-0.1-0.6-0.3-0.9-0.5c-0.3-0.2-0.5-0.5-0.6-1c-0.1-0.4-0.2-0.9-0.2-1.5c0-1.2-0.2-2.2-0.5-3.1
			c-0.4-0.9-0.9-1.6-1.5-2.2c-0.7-0.6-1.4-1-2.3-1.3c-0.9-0.3-1.9-0.4-3-0.4c-1.1,0-2.1,0.1-3,0.4c-0.9,0.3-1.7,0.7-2.3,1.3
			c-0.7,0.6-1.2,1.4-1.5,2.2c-0.4,0.9-0.5,1.9-0.5,3.1c0,0.6-0.1,1.1-0.2,1.5c-0.1,0.4-0.4,0.7-0.6,1c-0.3,0.2-0.6,0.4-0.9,0.5
			c-0.3,0.1-0.7,0.2-1.1,0.2l-18.1,0v-15.7h-3.4v18.7l21.5,0c0.8,0,1.5-0.2,2.2-0.6c0.7-0.4,1.1-1,1.5-1.8c0.6,1.1,1.5,1.9,2.6,2.5
			C372.5,296.3,373.7,296.6,375.2,296.6 M375.3,293.8c-1.3,0-2.3-0.4-2.9-1.2c-0.7-0.8-1-1.8-1-3c0-1.3,0.3-2.3,1-3.1
			c0.7-0.8,1.6-1.2,2.9-1.2c1.3,0,2.3,0.4,2.9,1.2c0.7,0.8,1,1.8,1,3.1c0,1.3-0.3,2.3-1,3C377.6,293.4,376.6,293.8,375.3,293.8
			 M375.8,305.7c0.3-0.5,0.6-1,0.8-1.5c0.2-0.6,0.3-1.1,0.3-1.5c0-0.6-0.1-1.1-0.3-1.6c-0.2-0.5-0.5-0.9-0.9-1.2
			c-0.4-0.3-0.8-0.6-1.4-0.8c-0.5-0.2-1.2-0.3-1.8-0.3c-0.5,0-1,0.1-1.5,0.3c-0.5,0.2-0.9,0.4-1.3,0.8c-0.4,0.3-0.8,0.8-1.1,1.3
			c-0.3,0.4-0.5,0.9-0.6,1.5h2.2c0.2-0.5,0.5-1,0.9-1.3c0.4-0.4,0.9-0.6,1.4-0.6c0.7,0,1.3,0.2,1.7,0.6c0.4,0.4,0.6,0.9,0.6,1.4
			c0,0.2-0.1,0.6-0.2,0.9c-0.2,0.4-0.3,0.7-0.5,0.9l-6.1,7.7v1.7h8.8v-2h-5.8L375.8,305.7z M410.5,311.5c0.2-0.5,0.4-1.2,0.4-1.8
			V303c0-0.7-0.1-1.3-0.4-1.8c-0.2-0.5-0.6-1-1-1.3c-0.4-0.4-0.9-0.6-1.4-0.8c-0.5-0.2-1.1-0.3-1.7-0.3c-0.6,0-1.2,0.1-1.7,0.3
			c-0.5,0.2-1,0.5-1.4,0.8c-0.4,0.4-0.7,0.8-1,1.3c-0.2,0.5-0.4,1.1-0.4,1.8v6.6c0,0.7,0.1,1.3,0.4,1.8c0.2,0.5,0.6,1,1,1.4
			c0.4,0.4,0.9,0.6,1.4,0.8c0.5,0.2,1.1,0.3,1.7,0.3c0.6,0,1.1-0.1,1.7-0.3c0.5-0.2,1-0.5,1.4-0.8
			C409.9,312.5,410.3,312,410.5,311.5 M408.1,301.4c0.4,0.5,0.7,1,0.7,1.8v6.4c0,0.7-0.2,1.3-0.7,1.8c-0.4,0.4-1,0.7-1.7,0.7
			c-0.7,0-1.3-0.2-1.7-0.7c-0.4-0.4-0.6-1-0.6-1.8v-6.4c0-0.7,0.2-1.3,0.6-1.8c0.4-0.5,1-0.7,1.7-0.7
			C407.1,300.7,407.7,300.9,408.1,301.4 M399.5,314v-2.4h1.3v-2h-1.3v-4.3h-2.1v4.3h-3.9l5.2-10.8h-2.3l-5.4,11.3v1.5h6.3v2.4H399.5
			z M388,311.5c0.2-0.5,0.4-1.2,0.4-1.8V303c0-0.7-0.1-1.3-0.4-1.8c-0.2-0.5-0.6-1-1-1.3c-0.4-0.4-0.9-0.6-1.4-0.8
			c-0.5-0.2-1.1-0.3-1.7-0.3c-0.6,0-1.2,0.1-1.7,0.3c-0.5,0.2-1,0.5-1.4,0.8c-0.4,0.4-0.7,0.8-1,1.3c-0.3,0.5-0.4,1.1-0.4,1.8v6.6
			c0,0.7,0.1,1.3,0.4,1.8c0.2,0.5,0.6,1,1,1.4c0.4,0.4,0.9,0.6,1.4,0.8c0.5,0.2,1.1,0.3,1.7,0.3c0.6,0,1.1-0.1,1.7-0.3
			c0.5-0.2,1-0.5,1.4-0.8C387.4,312.5,387.7,312,388,311.5 M385.6,301.4c0.4,0.5,0.7,1,0.7,1.8v6.4c0,0.7-0.2,1.3-0.7,1.8
			c-0.4,0.4-1,0.7-1.7,0.7c-0.7,0-1.3-0.2-1.7-0.7c-0.4-0.4-0.6-1-0.6-1.8v-6.4c0-0.7,0.2-1.3,0.6-1.8c0.4-0.5,1-0.7,1.7-0.7
			C384.6,300.7,385.1,300.9,385.6,301.4 M429.5,278.2l-1.3-1.2l-1.3,1.2l1.3,1.2L429.5,278.2z M427,278.2l-1.3-1.2l-1.3,1.2l1.3,1.2
			L427,278.2z M442.2,301.4l-1.3-1.2l-1.3,1.2l1.3,1.2L442.2,301.4z M439.7,301.4l-1.3-1.2l-1.3,1.2l1.3,1.2L439.7,301.4z"/>
		<path class="st7" d="M118.3,278.2L118.3,278.2c0-0.2,0.1-0.4,0.2-0.5c0.1-0.1,0.3-0.2,0.4-0.2c0.2,0,0.3,0.1,0.4,0.2
			c0.1,0.1,0.2,0.3,0.2,0.6l0,0.2c0,0.1,0,0.2-0.1,0.3c0,0.1-0.1,0.2-0.1,0.3c-0.3-0.1-0.5-0.2-0.7-0.3
			C118.4,278.6,118.3,278.4,118.3,278.2 M117.9,278.2L117.9,278.2c0,0.1,0,0.3,0.1,0.4c0.1,0.1,0.2,0.3,0.3,0.4
			c0.1,0.1,0.2,0.2,0.4,0.3c0.1,0.1,0.3,0.1,0.4,0.1c-0.2,0.2-0.4,0.4-0.6,0.6c-0.3,0.2-0.6,0.2-0.9,0.3v0.4c0.3,0,0.6-0.1,0.9-0.2
			c0.3-0.1,0.5-0.3,0.8-0.5c0.2-0.2,0.4-0.5,0.6-0.7c0.1-0.3,0.2-0.5,0.2-0.8c0-0.4-0.1-0.7-0.3-0.9c-0.2-0.2-0.5-0.3-0.7-0.3
			c-0.3,0-0.5,0.1-0.7,0.3C118,277.6,117.9,277.8,117.9,278.2 M123.4,283.6c0.5,0.5,0.8,1.3,0.8,2.4c0,1.1-0.3,1.9-0.8,2.4
			c-0.5,0.6-1.2,0.8-2.1,0.8c-0.9,0-1.5-0.3-2.1-0.8c-0.5-0.6-0.8-1.4-0.8-2.4c0-1.1,0.3-1.9,0.8-2.4c0.5-0.5,1.2-0.8,2.1-0.8
			C122.2,282.8,122.9,283.1,123.4,283.6 M117.3,286L117.3,286c0.1,0.7,0.2,1.4,0.4,1.9c0.2,0.6,0.6,1,0.9,1.4c-0.5,0-1,0.1-1.4,0.2
			c-0.4,0.1-0.7,0.3-1,0.6c-0.3,0.2-0.4,0.5-0.6,0.9c-0.1,0.3-0.2,0.7-0.2,1v2.4h1.1v-2.4c0-0.5,0.2-0.9,0.6-1.2
			c0.4-0.3,1-0.4,1.8-0.4h2.3c0.7,0,1.2-0.1,1.7-0.3c0.5-0.2,0.9-0.5,1.2-0.9c0.3-0.4,0.6-0.8,0.7-1.3c0.2-0.5,0.2-1.1,0.2-1.7
			c0-0.6-0.1-1.2-0.3-1.7c-0.2-0.5-0.4-1-0.8-1.3c-0.3-0.4-0.7-0.7-1.2-0.9c-0.5-0.2-1.1-0.3-1.7-0.3c-0.6,0-1.2,0.1-1.7,0.3
			c-0.5,0.2-0.9,0.5-1.3,0.9c-0.3,0.4-0.6,0.8-0.8,1.3C117.4,284.7,117.3,285.3,117.3,286 M135.8,289.2c-0.6,0-1.1-0.2-1.5-0.6
			c-0.4-0.4-0.6-0.9-0.6-1.6v-0.4c0-0.8-0.1-1.4-0.3-2c-0.2-0.6-0.5-1-0.9-1.4c-0.4-0.4-0.9-0.7-1.4-0.8c-0.5-0.2-1.1-0.3-1.7-0.3
			h-1.2v1h1.5c0.5,0,1,0.1,1.4,0.3c0.4,0.2,0.7,0.4,0.9,0.8c0.2,0.3,0.4,0.7,0.5,1.1c0.1,0.4,0.2,0.9,0.2,1.4v2.6h-5.2v1h5.8
			c0.2-0.2,0.3-0.4,0.4-0.6c0.1-0.2,0.1-0.4,0.1-0.5c0.1,0.2,0.2,0.3,0.3,0.5c0.2,0.1,0.3,0.3,0.6,0.4c0.2,0.1,0.4,0.2,0.6,0.2
			c0.2,0.1,0.4,0.1,0.6,0.1l27.2,0c0.5,0,1-0.1,1.5-0.3c0.4-0.2,0.8-0.6,1-1.2c0.1,0.2,0.2,0.4,0.4,0.6c0.2,0.2,0.4,0.4,0.6,0.5
			c0.2,0.1,0.5,0.2,0.8,0.3c0.3,0.1,0.6,0.1,0.9,0.1h17.9v-7.3h-1.1v6.3H168c-0.4,0-0.7-0.1-1-0.2c-0.3-0.2-0.5-0.4-0.7-0.6
			c-0.2-0.3-0.4-0.6-0.5-0.9c-0.1-0.3-0.2-0.7-0.2-1v-3.6h-1.1v4.2c0,0.8-0.2,1.3-0.5,1.6c-0.3,0.3-0.7,0.5-1.3,0.5l-14.5,0
			c0.4-0.4,0.7-0.8,0.9-1.4c0.2-0.6,0.4-1.2,0.4-1.9c0-0.6-0.1-1.2-0.3-1.7c-0.2-0.5-0.4-1-0.8-1.3c-0.3-0.4-0.7-0.7-1.2-0.9
			c-0.5-0.2-1.1-0.3-1.7-0.3c-0.6,0-1.2,0.1-1.7,0.3c-0.5,0.2-0.9,0.5-1.2,0.9c-0.3,0.4-0.6,0.8-0.8,1.3c-0.2,0.5-0.3,1.1-0.3,1.7
			c0,0.7,0.1,1.3,0.4,1.9c0.2,0.5,0.6,1,0.9,1.4H135.8z M147.8,283.6c0.5,0.5,0.8,1.3,0.8,2.4c0,1.1-0.3,1.9-0.8,2.4
			c-0.5,0.6-1.2,0.8-2.1,0.8c-0.9,0-1.5-0.3-2-0.8c-0.5-0.6-0.8-1.4-0.8-2.4c0-1.1,0.2-1.9,0.8-2.4c0.5-0.5,1.2-0.8,2-0.8
			C146.6,282.8,147.3,283.1,147.8,283.6 M144.4,277.1l-0.7,0.7l0.7,0.7l0.7-0.7L144.4,277.1z M147,277.1l-0.7,0.7l0.7,0.7l0.7-0.7
			L147,277.1z M163.9,277.1l-0.7,0.7l0.7,0.7l0.7-0.7L163.9,277.1z M166.4,277.1l-0.7,0.7l0.7,0.7l0.7-0.7L166.4,277.1z
			 M185.4,277.1l-0.7,0.7l0.7,0.7l0.7-0.7L185.4,277.1z M54.9,287.8L54.9,287.8c-0.6,0-1-0.2-1.3-0.4c-0.3-0.3-0.5-0.7-0.5-1.3
			c0-0.6,0.2-1.1,0.5-1.5c0.3-0.4,0.8-0.5,1.4-0.5h1.7v1.9c0,0.3-0.1,0.6-0.2,0.9c-0.1,0.2-0.2,0.4-0.4,0.6
			c-0.2,0.2-0.4,0.3-0.6,0.3C55.3,287.8,55.1,287.8,54.9,287.8 M60.5,288.2c-0.5,0-0.9-0.1-1.1-0.4c-0.2-0.3-0.3-0.7-0.3-1.4v-4.3
			H55c-0.7,0-1.4,0.1-1.9,0.3c-0.5,0.2-1,0.5-1.3,0.8c-0.4,0.4-0.6,0.8-0.8,1.3c-0.2,0.5-0.3,1-0.3,1.6c0,0.6,0.1,1.1,0.3,1.5
			c0.2,0.4,0.5,0.8,0.9,1.1c0.4,0.3,0.8,0.5,1.3,0.7c0.5,0.2,1,0.3,1.6,0.3c0.6,0,1.1-0.1,1.6-0.4c0.5-0.2,0.8-0.5,1.1-0.9
			c0.2,0.5,0.5,1,1,1.3c0.4,0.3,1,0.5,1.6,0.5l33.4,0c0.2,0,0.4,0,0.7-0.1c0.2,0,0.5-0.1,0.8-0.2c0.3-0.1,0.5-0.2,0.8-0.4
			c0.3-0.2,0.5-0.3,0.7-0.6c0.1,0.2,0.3,0.3,0.4,0.4c0.2,0.1,0.4,0.3,0.6,0.4c0.2,0.1,0.4,0.2,0.6,0.3c0.2,0.1,0.5,0.1,0.7,0.1h0.6
			c0,0,0.1,0,0.2,0h0h5.6v-7.3h-2.5v5.3h-2.9c-0.1,0-0.1,0-0.2,0h-0.8c-0.2,0-0.4,0-0.5-0.1c-0.2-0.1-0.3-0.2-0.5-0.3
			c-0.1-0.1-0.3-0.3-0.4-0.5c-0.1-0.2-0.1-0.5-0.1-0.8v-3.6h-2.5v3.9c0,0.3,0,0.5-0.1,0.7c-0.1,0.2-0.2,0.3-0.3,0.4
			c-0.1,0.1-0.3,0.2-0.4,0.2c-0.1,0-0.3,0.1-0.4,0.1l-17,0v-0.1c0.3-0.2,0.5-0.5,0.7-0.9c0.2-0.4,0.3-0.8,0.3-1.2
			c0-0.7-0.1-1.3-0.4-1.9c-0.3-0.5-0.6-1-1-1.3c-0.4-0.4-0.9-0.6-1.5-0.8c-0.6-0.2-1.2-0.3-1.9-0.3c-0.7,0-1.3,0.1-1.9,0.3
			c-0.6,0.2-1.1,0.5-1.5,0.8c-0.4,0.4-0.7,0.8-1,1.3c-0.2,0.5-0.4,1.1-0.4,1.8c0,0.4,0.1,0.8,0.3,1.2c0.2,0.4,0.4,0.7,0.7,0.9v0.1
			L60.5,288.2z M72.6,288.3L72.6,288.3c-0.7,0-1.2-0.2-1.5-0.7c-0.3-0.4-0.5-1-0.5-1.6c0-0.3,0-0.6,0.1-0.9c0.1-0.3,0.2-0.5,0.4-0.7
			c0.2-0.2,0.4-0.4,0.6-0.5c0.2-0.1,0.6-0.2,0.9-0.2c0.3,0,0.6,0.1,0.9,0.2c0.3,0.1,0.5,0.3,0.6,0.5c0.2,0.2,0.3,0.4,0.4,0.7
			c0.1,0.3,0.1,0.6,0.1,0.9c0,0.7-0.2,1.2-0.5,1.6C73.8,288.1,73.3,288.3,72.6,288.3 M103.8,291.9l-1.5,1.4l1.5,1.4l1.5-1.4
			L103.8,291.9z M93.9,279l-1.5,1.4l1.5,1.4l1.5-1.4L93.9,279z M97.9,279l-1.5,1.4l1.5,1.4l1.5-1.4L97.9,279z M70.4,277.1l-1.5,1.4
			l1.5,1.4l1.5-1.4L70.4,277.1z M74.5,277.1l-1.5,1.4l1.5,1.4l1.5-1.4L74.5,277.1z M95.9,277.1l-1.5,1.4l1.5,1.4l1.5-1.4L95.9,277.1
			z M53.9,277.1l-1.5,1.4l1.5,1.4l1.5-1.4L53.9,277.1z M57.9,277.1l-1.5,1.4l1.5,1.4l1.5-1.4L57.9,277.1z"/>
		<path class="st7" d="M88.3,297.9l-1,1l1,1l1-1L88.3,297.9z M66.8,311.4l-1.5,1.4l1.5,1.4l1.5-1.4L66.8,311.4z M132.3,311.4
			l-1.5,1.4l1.5,1.4l1.5-1.4L132.3,311.4z M63.1,297.9l-5.3,6.3l-5.3-6.3h-1.4v10.2h1.2v-8.5l5.3,6.3h0.1l5.3-6.3v8.5h1.2v-10.2
			L63.1,297.9z M71.2,307.3c-2.2,0-3.8-1-3.8-3.1c0-2.1,1.6-3.1,3.8-3.1c2.2,0,3.8,1,3.8,3.1C75,306.3,73.3,307.3,71.2,307.3
			 M71.2,308.4c3.2,0,5-1.7,5-4.3c0-2.6-1.8-4.3-5-4.3c-3.2,0-5,1.7-5,4.3C66.2,306.7,68,308.4,71.2,308.4 M86.7,300.1h-1.4
			l-3.6,6.9l-3.6-6.9h-1.4l4.3,8.1h1.3L86.7,300.1z M92.4,308.2v-5c0.7-1.5,2-2.2,3.6-2.2c1.8,0,2.7,1,2.7,2.8v4.4h1.2v-4.5
			c0-2.2-1.2-3.8-3.7-3.8c-1.7,0-3.1,0.8-3.8,2v-1.8h-1.2v8H92.4z M106.3,307.3c-2.3,0-3.6-1.1-3.6-3.1c0-2,1.3-3.1,3.6-3.1
			c1.5,0,2.8,0.5,3.7,1.9v2.5C109.1,306.8,107.8,307.3,106.3,307.3 M111.2,300.1H110v1.5c-0.8-1-2.2-1.8-4-1.8
			c-2.8,0-4.5,1.8-4.5,4.3c0,2.5,1.7,4.3,4.5,4.3c1.7,0,3.3-0.8,4-1.9v0.8c0,2-1.4,2.9-3.8,2.9c-1.4,0-2.5-0.4-3.3-0.9l-0.6,0.9
			c0.9,0.7,2.5,1.1,4,1.1c2.7,0,4.9-1.3,4.9-4.2V300.1z M125.6,299.1v-1.2h-10v10.3h1.2v-4.4h7.4v-1.1h-7.4v-3.5H125.6z
			 M131.8,307.2c-2.2,0-3.8-1-3.8-3.1c0-2.1,1.6-3.1,3.8-3.1c2.2,0,3.8,1,3.8,3.1C135.5,306.2,133.9,307.2,131.8,307.2 M131.8,308.4
			c3.2,0,5-1.7,5-4.3c0-2.6-1.8-4.3-5-4.3c-3.2,0-5,1.7-5,4.3C126.8,306.7,128.6,308.4,131.8,308.4 M139.2,308.1v-4.7
			c0.6-1.6,2.2-2.4,4.1-2.4v-1.1c-1.8,0-3.4,0.8-4.1,2.2v-1.9H138v8H139.2z M157.1,300.1l-2.5,6.7l-2.6-6.7h-1.2l-2.6,6.7l-2.5-6.7
			h-1.3l3,8.1h1.2l2.6-6.9l2.6,6.9h1.2l3-8.1L157.1,300.1z M167.3,305.8c-0.7,1.2-2.2,1.7-3.6,1.7c-1.2,0-3-0.3-3-1.8
			c0-1.5,1.8-1.8,3-1.8c1.4,0,2.9,0.4,3.6,1.7V305.8z M164.2,299.9c-1.5,0-3,0.4-3.9,1l0.6,0.9c0.9-0.6,1.9-1,3.2-1
			c2.2,0,3.3,0.9,3.3,2.8v0.7c-0.6-0.9-1.9-1.6-3.6-1.6c-1.7,0-4.1,0.7-4.1,2.8c0,2.1,2.4,2.8,4.1,2.8c1.7,0,3-0.7,3.6-1.6v0
			c0,0.5,0.1,0.9,0.3,1.3h1.3c-0.3-0.5-0.4-1-0.4-1.6v-2.9C168.5,301.2,166.9,299.9,164.2,299.9 M171.3,308.1v-4.7
			c0.6-1.6,2.2-2.4,4.1-2.4v-1.1c-1.8,0-3.4,0.8-4.1,2.2v-1.9h-1.2v8H171.3z M181,307.3c-2.3,0-3.6-1.1-3.6-3.1c0-2,1.3-3.1,3.6-3.1
			c1.5,0,2.8,0.5,3.7,1.9v2.5C183.9,306.8,182.6,307.3,181,307.3 M180.7,299.9c-2.8,0-4.5,1.8-4.5,4.3c0,2.5,1.7,4.3,4.5,4.3
			c1.8,0,3.3-0.8,4-1.9v1.6h1.2v-10.7h-1.2v4.3C184,300.6,182.6,299.9,180.7,299.9 M62.7,314.6l-1.9,5.4l-2-5.4h-2l-2,5.4l-1.9-5.4
			h-2.2l2.8,7.7h2.2l2-5.8l2,5.8H62l2.9-7.6L62.7,314.6z M68,314.6h-2.3v7.7H68V314.6z M75.2,320.4c-0.4,0.2-0.9,0.4-1.5,0.4
			c-0.8,0-1.4-0.4-1.4-1.2v-3.3h3.3v-1.6h-3.3v-1.8H70v1.8h-1.5v1.6H70v3.7c0,1.7,1.3,2.6,3.1,2.6c0.9,0,1.9-0.3,2.6-0.7L75.2,320.4
			z M82,314.5c-1.5,0-2.8,0.6-3.5,1.5v-1.2v-2.7h-2.3v2.6v7.6h2.3v-4.6c0.7-1.1,1.6-1.6,2.8-1.6c1.3,0,2,0.7,2,1.9v4.3h2.3v-4.5
			C85.7,315.8,84.4,314.5,82,314.5 M96.4,320.7c-2.4,0-4-1.1-4-3.2c0-2.1,1.6-3.2,4-3.2c1.5,0,2.6,0.5,3.3,1.6l2.1-1
			c-0.9-1.3-2.9-2.4-5.4-2.4c-3.9,0-6.3,1.9-6.3,5.1c0,3.2,2.5,5.1,6.2,5.1c2.6,0,4.6-1.1,5.5-2.4l-2.1-1
			C99,320.2,97.9,320.7,96.4,320.7 M107.3,320.8c-1.7,0-2.9-0.8-2.9-2.3c0-1.6,1.2-2.3,2.9-2.3c1.7,0,2.9,0.8,2.9,2.3
			C110.2,320,109,320.8,107.3,320.8 M107.3,322.6c3.1,0,5-1.6,5-4.1c0-2.5-1.9-4.1-5-4.1c-3.1,0-5,1.6-5,4.1
			C102.3,321,104.2,322.6,107.3,322.6 M115.7,322.3v-4.6c0.7-1.1,1.6-1.6,2.8-1.6c1.3,0,2,0.7,2,1.9v4.3h2.3v-4.5
			c0-2-1.3-3.4-3.7-3.4c-1.5,0-2.8,0.6-3.5,1.5v-1.3h-2.3v7.7H115.7z M127.1,314.2c0-0.7,0.6-1,1.4-1c0.5,0,1,0.1,1.5,0.4l0.4-1.3
			c-0.6-0.3-1.6-0.5-2.5-0.5c-1.8,0-3.2,0.8-3.2,2.6v0.2h-1.5v1.6h1.5v6.1h2.3v-6.1h3.3v-1.6h-3.3V314.2z M133.4,314.6h-2.3v7.7h2.3
			V314.6z M139.2,320.8c-1.7,0-2.7-0.8-2.7-2.3c0-1.5,1-2.3,2.7-2.3c1.2,0,2.2,0.4,2.9,1.2v2.1C141.4,320.4,140.4,320.8,139.2,320.8
			 M138.7,314.4c-2.5,0-4.3,1.6-4.3,4.1c0,2.5,1.8,4.1,4.3,4.1c1.6,0,2.8-0.7,3.4-1.5v1.3h2.3v-10.2h-2.3v3.9
			C141.5,315.1,140.3,314.4,138.7,314.4 M150.5,316c1.4,0,2.3,0.5,2.7,1.6l-5.4,0C148,316.6,149,316,150.5,316 M147.6,319.1h7.6
			c0-0.1,0.1-0.2,0.1-0.5c0-2.7-1.9-4.1-4.8-4.1c-3.1,0-5,1.6-5,4.1c0,2.4,1.9,4,5.1,4c1.8,0,3.2-0.4,4.4-1.3l-1.2-1.2
			c-0.8,0.6-1.7,0.9-3,0.9C148.9,320.9,147.8,320.3,147.6,319.1 M158.3,322.3v-4.6c0.7-1.1,1.6-1.6,2.8-1.6c1.3,0,2,0.7,2,1.9v4.3
			h2.3v-4.5c0-2-1.3-3.4-3.7-3.4c-1.5,0-2.8,0.6-3.5,1.5v-1.3H156v7.7H158.3z M176,320.5l-2-0.8c-0.5,0.9-1.4,1.2-2.4,1.2
			c-1.7,0-2.9-0.8-2.9-2.4c0-1.6,1.2-2.4,2.9-2.4c1,0,1.9,0.3,2.3,1.2l2.1-0.8c-0.7-1.1-2.2-2-4.4-2c-3.1,0-5,1.5-5,4
			c0,2.5,1.9,4,5,4C173.8,322.5,175.3,321.6,176,320.5 M181.1,316c1.4,0,2.3,0.5,2.7,1.6l-5.4,0C178.7,316.6,179.7,316,181.1,316
			 M178.3,319.1h7.6c0-0.1,0.1-0.2,0.1-0.5c0-2.7-1.9-4.1-4.8-4.1c-3.1,0-5,1.6-5,4.1c0,2.4,1.9,4,5.1,4c1.8,0,3.2-0.4,4.4-1.3
			l-1.2-1.2c-0.8,0.6-1.7,0.9-3,0.9C179.5,320.9,178.5,320.3,178.3,319.1 M87.8,308.3H89v-8.2h-1.2V308.3z"/>
		<rect x="198" y="277.1" class="st8" width="0.7" height="45.5"/>
	</g>
</g>
</svg>
